<mxfile host="app.diagrams.net" modified="2021-11-09T14:20:44.382Z" agent="5.0 (Windows NT 10.0; Win64; x64) AppleWebKit/537.36 (KHTML, like Gecko) Chrome/95.0.4638.69 Safari/537.36" etag="e1V5RwrbBUPuZT-k-8z4" version="15.7.0" type="github">
  <diagram id="6P4FMJik61u37zgph2ME" name="Page-1">
    <mxGraphModel dx="2844" dy="2494" grid="1" gridSize="10" guides="1" tooltips="1" connect="1" arrows="1" fold="1" page="1" pageScale="1" pageWidth="850" pageHeight="1100" math="0" shadow="0">
      <root>
        <mxCell id="0" />
        <mxCell id="1" parent="0" />
        <mxCell id="FllmD5eeuwooPLQuax1E-43" value="" style="whiteSpace=wrap;html=1;fontSize=30;strokeWidth=3;align=center;" parent="1" vertex="1">
          <mxGeometry x="632" y="1490" width="750" height="710" as="geometry" />
        </mxCell>
        <mxCell id="FllmD5eeuwooPLQuax1E-2" value="" style="whiteSpace=wrap;html=1;strokeWidth=3;" parent="1" vertex="1">
          <mxGeometry x="310" y="-300" width="1210" height="1690" as="geometry" />
        </mxCell>
        <UserObject label="Administrator" lucidchartObjectId="Aneq4tT9_dTQ" id="bAnhzxqhdpHS4rBfya39-1">
          <mxCell style="html=1;overflow=block;blockSpacing=1;whiteSpace=wrap;shape=umlActor;labelPosition=center;verticalLabelPosition=bottom;verticalAlign=top;whiteSpace=nowrap;whiteSpace=wrap;fontSize=16.7;fontColor=#333333;spacing=0;strokeColor=#5e5e5e;strokeOpacity=100;rounded=1;absoluteArcSize=1;arcSize=9;strokeWidth=2.3;" parent="1" vertex="1">
            <mxGeometry x="140" y="-61" width="45" height="90" as="geometry" />
          </mxCell>
        </UserObject>
        <UserObject label="Login Account" lucidchartObjectId="Aneq2xJtDtZU" id="bAnhzxqhdpHS4rBfya39-2">
          <mxCell style="html=1;overflow=block;blockSpacing=1;whiteSpace=wrap;ellipse;whiteSpace=wrap;fontSize=13;spacing=3.8;strokeColor=#82b366;strokeOpacity=100;rounded=1;absoluteArcSize=1;arcSize=9;strokeWidth=2.3;fillColor=#d5e8d4;" parent="1" vertex="1">
            <mxGeometry x="425" y="-100" width="120" height="45" as="geometry" />
          </mxCell>
        </UserObject>
        <UserObject label="" lucidchartObjectId="Aneqei5sWwjE" id="bAnhzxqhdpHS4rBfya39-3">
          <mxCell style="html=1;jettySize=18;whiteSpace=wrap;fontSize=13;strokeColor=#5E5E5E;strokeWidth=1.5;rounded=0;startArrow=none;;endArrow=none;;entryX=-0.009;entryY=0.5;entryPerimeter=0;exitX=1;exitY=0.3333333333333333;exitDx=0;exitDy=0;exitPerimeter=0;" parent="1" source="bAnhzxqhdpHS4rBfya39-1" target="bAnhzxqhdpHS4rBfya39-2" edge="1">
            <mxGeometry width="100" height="100" relative="1" as="geometry">
              <Array as="points" />
              <mxPoint x="287" y="-10" as="sourcePoint" />
            </mxGeometry>
          </mxCell>
        </UserObject>
        <UserObject label="Manage Users Account" lucidchartObjectId="AneqCKjMmkPi" id="bAnhzxqhdpHS4rBfya39-4">
          <mxCell style="html=1;overflow=block;blockSpacing=1;whiteSpace=wrap;ellipse;whiteSpace=wrap;fontSize=13;spacing=3.8;strokeColor=#d79b00;strokeOpacity=100;rounded=1;absoluteArcSize=1;arcSize=9;strokeWidth=2.3;fillColor=#ffe6cc;" parent="1" vertex="1">
            <mxGeometry x="425" y="-10" width="180" height="45" as="geometry" />
          </mxCell>
        </UserObject>
        <UserObject label="" lucidchartObjectId="Aneq6nEp65u5" id="bAnhzxqhdpHS4rBfya39-5">
          <mxCell style="html=1;jettySize=18;whiteSpace=wrap;fontSize=13;strokeColor=#5E5E5E;strokeWidth=1.5;rounded=0;startArrow=none;;endArrow=none;;exitX=-0.006;exitY=0.5;exitPerimeter=0;entryX=1;entryY=0.3333333333333333;entryDx=0;entryDy=0;entryPerimeter=0;" parent="1" source="bAnhzxqhdpHS4rBfya39-4" target="bAnhzxqhdpHS4rBfya39-1" edge="1">
            <mxGeometry width="100" height="100" relative="1" as="geometry">
              <Array as="points" />
              <mxPoint x="287" y="-10" as="targetPoint" />
            </mxGeometry>
          </mxCell>
        </UserObject>
        <UserObject label="Add User" lucidchartObjectId="AneqyuuetK16" id="bAnhzxqhdpHS4rBfya39-6">
          <mxCell style="html=1;overflow=block;blockSpacing=1;whiteSpace=wrap;ellipse;whiteSpace=wrap;fontSize=13;spacing=3.8;strokeColor=#d79b00;strokeOpacity=100;rounded=1;absoluteArcSize=1;arcSize=9;strokeWidth=2.3;fillColor=#ffe6cc;" parent="1" vertex="1">
            <mxGeometry x="872" y="-160" width="105" height="45" as="geometry" />
          </mxCell>
        </UserObject>
        <UserObject label="View Users Account" lucidchartObjectId="AneqGBPK_VDR" id="bAnhzxqhdpHS4rBfya39-7">
          <mxCell style="html=1;overflow=block;blockSpacing=1;whiteSpace=wrap;ellipse;whiteSpace=wrap;fontSize=13;spacing=3.8;strokeColor=#d79b00;strokeOpacity=100;rounded=1;absoluteArcSize=1;arcSize=9;strokeWidth=2.3;fillColor=#ffe6cc;" parent="1" vertex="1">
            <mxGeometry x="872" y="-91" width="165" height="45" as="geometry" />
          </mxCell>
        </UserObject>
        <UserObject label="Update Users Account" lucidchartObjectId="Aneq1ko3C7oZ" id="bAnhzxqhdpHS4rBfya39-8">
          <mxCell style="html=1;overflow=block;blockSpacing=1;whiteSpace=wrap;ellipse;whiteSpace=wrap;fontSize=13;spacing=3.8;strokeColor=#d79b00;strokeOpacity=100;rounded=1;absoluteArcSize=1;arcSize=9;strokeWidth=2.3;fillColor=#ffe6cc;" parent="1" vertex="1">
            <mxGeometry x="872" y="59" width="180" height="45" as="geometry" />
          </mxCell>
        </UserObject>
        <UserObject label="Deactivate Users Account" lucidchartObjectId="AneqsQ6qzkPn" id="bAnhzxqhdpHS4rBfya39-9">
          <mxCell style="html=1;overflow=block;blockSpacing=1;whiteSpace=wrap;ellipse;whiteSpace=wrap;fontSize=13;spacing=3.8;strokeColor=#d79b00;strokeOpacity=100;rounded=1;absoluteArcSize=1;arcSize=9;strokeWidth=2.3;fillColor=#ffe6cc;" parent="1" vertex="1">
            <mxGeometry x="872" y="133" width="225" height="45" as="geometry" />
          </mxCell>
        </UserObject>
        <UserObject label="View Users Session" lucidchartObjectId="Aneqlc5Bwa4V" id="bAnhzxqhdpHS4rBfya39-10">
          <mxCell style="html=1;overflow=block;blockSpacing=1;whiteSpace=wrap;ellipse;whiteSpace=wrap;fontSize=13;spacing=3.8;strokeColor=#d79b00;strokeOpacity=100;rounded=1;absoluteArcSize=1;arcSize=9;strokeWidth=2.3;fillColor=#ffe6cc;" parent="1" vertex="1">
            <mxGeometry x="872" y="-16" width="165" height="45" as="geometry" />
          </mxCell>
        </UserObject>
        <UserObject label="Sort Users Account" lucidchartObjectId="AneqU3eewxsL" id="bAnhzxqhdpHS4rBfya39-11">
          <mxCell style="html=1;overflow=block;blockSpacing=1;whiteSpace=wrap;ellipse;whiteSpace=wrap;fontSize=13;spacing=3.8;strokeColor=#d79b00;strokeOpacity=100;rounded=1;absoluteArcSize=1;arcSize=9;strokeWidth=2.3;fillColor=#ffe6cc;" parent="1" vertex="1">
            <mxGeometry x="1202" y="-160" width="165" height="45" as="geometry" />
          </mxCell>
        </UserObject>
        <UserObject label="Filter Users Account" lucidchartObjectId="AneqVSeaUFmQ" id="bAnhzxqhdpHS4rBfya39-12">
          <mxCell style="html=1;overflow=block;blockSpacing=1;whiteSpace=wrap;ellipse;whiteSpace=wrap;fontSize=13;spacing=3.8;strokeColor=#d79b00;strokeOpacity=100;rounded=1;absoluteArcSize=1;arcSize=9;strokeWidth=2.3;fillColor=#ffe6cc;" parent="1" vertex="1">
            <mxGeometry x="1202" y="-91" width="165" height="45" as="geometry" />
          </mxCell>
        </UserObject>
        <UserObject label="Search Users Account" lucidchartObjectId="Aneq8jHds8jX" id="bAnhzxqhdpHS4rBfya39-13">
          <mxCell style="html=1;overflow=block;blockSpacing=1;whiteSpace=wrap;ellipse;whiteSpace=wrap;fontSize=13;spacing=3.8;strokeColor=#d79b00;strokeOpacity=100;rounded=1;absoluteArcSize=1;arcSize=9;strokeWidth=2.3;fillColor=#ffe6cc;" parent="1" vertex="1">
            <mxGeometry x="1202" y="-25" width="180" height="45" as="geometry" />
          </mxCell>
        </UserObject>
        <UserObject label="Dean" lucidchartObjectId="Aneq6y.R5byz" id="bAnhzxqhdpHS4rBfya39-14">
          <mxCell style="html=1;overflow=block;blockSpacing=1;whiteSpace=wrap;shape=umlActor;labelPosition=center;verticalLabelPosition=bottom;verticalAlign=top;whiteSpace=nowrap;whiteSpace=wrap;fontSize=16.7;fontColor=#333333;spacing=0;strokeColor=#5e5e5e;strokeOpacity=100;rounded=1;absoluteArcSize=1;arcSize=9;strokeWidth=2.3;" parent="1" vertex="1">
            <mxGeometry x="140" y="170" width="45" height="90" as="geometry" />
          </mxCell>
        </UserObject>
        <UserObject label="" lucidchartObjectId="AneqDjUx6QR4" id="bAnhzxqhdpHS4rBfya39-15">
          <mxCell style="html=1;jettySize=18;whiteSpace=wrap;fontSize=13;strokeColor=#5E5E5E;strokeWidth=1.5;rounded=0;startArrow=none;;endArrow=none;;entryX=-0.009;entryY=0.5;entryPerimeter=0;exitX=1;exitY=0.3333333333333333;exitDx=0;exitDy=0;exitPerimeter=0;" parent="1" source="bAnhzxqhdpHS4rBfya39-14" target="bAnhzxqhdpHS4rBfya39-2" edge="1">
            <mxGeometry width="100" height="100" relative="1" as="geometry">
              <Array as="points" />
              <mxPoint x="287" y="215" as="sourcePoint" />
            </mxGeometry>
          </mxCell>
        </UserObject>
        <UserObject label="View Course" lucidchartObjectId="AneqoFbDFtT0" id="bAnhzxqhdpHS4rBfya39-16">
          <mxCell style="html=1;overflow=block;blockSpacing=1;whiteSpace=wrap;ellipse;whiteSpace=wrap;fontSize=13;spacing=3.8;strokeColor=#d6b656;strokeOpacity=100;rounded=1;absoluteArcSize=1;arcSize=9;strokeWidth=2.3;fillColor=#fff2cc;" parent="1" vertex="1">
            <mxGeometry x="422" y="275" width="180" height="45" as="geometry" />
          </mxCell>
        </UserObject>
        <UserObject label="" lucidchartObjectId="Aneqbt~Dg85A" id="bAnhzxqhdpHS4rBfya39-17">
          <mxCell style="html=1;jettySize=18;whiteSpace=wrap;fontSize=13;strokeColor=#5E5E5E;strokeWidth=1.5;rounded=0;startArrow=none;;endArrow=none;;exitX=-0.006;exitY=0.5;exitPerimeter=0;entryX=1;entryY=0.3333333333333333;entryDx=0;entryDy=0;entryPerimeter=0;" parent="1" source="bAnhzxqhdpHS4rBfya39-16" target="bAnhzxqhdpHS4rBfya39-14" edge="1">
            <mxGeometry width="100" height="100" relative="1" as="geometry">
              <Array as="points" />
              <mxPoint x="200" y="200" as="targetPoint" />
            </mxGeometry>
          </mxCell>
        </UserObject>
        <UserObject label="Sort Course records" lucidchartObjectId="AneqI2_SgHAi" id="bAnhzxqhdpHS4rBfya39-18">
          <mxCell style="html=1;overflow=block;blockSpacing=1;whiteSpace=wrap;ellipse;whiteSpace=wrap;fontSize=13;spacing=3.8;strokeColor=#d6b656;strokeOpacity=100;rounded=1;absoluteArcSize=1;arcSize=9;strokeWidth=2.3;fillColor=#fff2cc;" parent="1" vertex="1">
            <mxGeometry x="872" y="207" width="165" height="45" as="geometry" />
          </mxCell>
        </UserObject>
        <UserObject label="Filter Course records" lucidchartObjectId="AneqBNSqabO4" id="bAnhzxqhdpHS4rBfya39-19">
          <mxCell style="html=1;overflow=block;blockSpacing=1;whiteSpace=wrap;ellipse;whiteSpace=wrap;fontSize=13;spacing=3.8;strokeColor=#d6b656;strokeOpacity=100;rounded=1;absoluteArcSize=1;arcSize=9;strokeWidth=2.3;fillColor=#fff2cc;" parent="1" vertex="1">
            <mxGeometry x="872" y="271" width="165" height="45" as="geometry" />
          </mxCell>
        </UserObject>
        <UserObject label="Search Course records" lucidchartObjectId="AneqTC5nh57_" id="bAnhzxqhdpHS4rBfya39-20">
          <mxCell style="html=1;overflow=block;blockSpacing=1;whiteSpace=wrap;ellipse;whiteSpace=wrap;fontSize=13;spacing=3.8;strokeColor=#d6b656;strokeOpacity=100;rounded=1;absoluteArcSize=1;arcSize=9;strokeWidth=2.3;fillColor=#fff2cc;" parent="1" vertex="1">
            <mxGeometry x="872" y="335" width="180" height="45" as="geometry" />
          </mxCell>
        </UserObject>
        <UserObject label="Automate Schedule" lucidchartObjectId="AneqSfKo16TX" id="bAnhzxqhdpHS4rBfya39-21">
          <mxCell style="html=1;overflow=block;blockSpacing=1;whiteSpace=wrap;ellipse;whiteSpace=wrap;fontSize=13;spacing=3.8;strokeColor=#5e5e5e;strokeOpacity=100;rounded=1;absoluteArcSize=1;arcSize=9;strokeWidth=2.3;" parent="1" vertex="1">
            <mxGeometry x="422" y="380" width="180" height="45" as="geometry" />
          </mxCell>
        </UserObject>
        <UserObject label="" lucidchartObjectId="Aneq3utgzdq2" id="bAnhzxqhdpHS4rBfya39-22">
          <mxCell style="html=1;jettySize=18;whiteSpace=wrap;fontSize=13;strokeColor=#5E5E5E;strokeWidth=1.5;rounded=0;startArrow=none;;endArrow=none;;exitX=-0.006;exitY=0.5;exitPerimeter=0;entryX=1;entryY=0.3333333333333333;entryDx=0;entryDy=0;entryPerimeter=0;" parent="1" source="bAnhzxqhdpHS4rBfya39-21" target="bAnhzxqhdpHS4rBfya39-14" edge="1">
            <mxGeometry width="100" height="100" relative="1" as="geometry">
              <Array as="points" />
              <mxPoint x="287" y="215" as="targetPoint" />
            </mxGeometry>
          </mxCell>
        </UserObject>
        <UserObject label="generate block sections" lucidchartObjectId="AneqkTmM1-b1" id="bAnhzxqhdpHS4rBfya39-23">
          <mxCell style="html=1;overflow=block;blockSpacing=1;whiteSpace=wrap;ellipse;whiteSpace=wrap;fontSize=13;spacing=3.8;strokeColor=#5e5e5e;strokeOpacity=100;rounded=1;absoluteArcSize=1;arcSize=9;strokeWidth=2.3;" parent="1" vertex="1">
            <mxGeometry x="871" y="440" width="180" height="45" as="geometry" />
          </mxCell>
        </UserObject>
        <UserObject label="" lucidchartObjectId="AneqDZlPNHHO" id="bAnhzxqhdpHS4rBfya39-24">
          <mxCell style="html=1;jettySize=18;whiteSpace=wrap;fontSize=13;strokeColor=#5E5E5E;dashed=1;fixDash=1;dashPattern=3 8;strokeWidth=1.5;rounded=0;startArrow=none;;endArrow=open;;exitX=1.006;exitY=0.5;exitPerimeter=0;entryX=-0.006;entryY=0.5;entryPerimeter=0;" parent="1" source="bAnhzxqhdpHS4rBfya39-21" target="bAnhzxqhdpHS4rBfya39-23" edge="1">
            <mxGeometry width="100" height="100" relative="1" as="geometry">
              <Array as="points" />
            </mxGeometry>
          </mxCell>
        </UserObject>
        <mxCell id="bAnhzxqhdpHS4rBfya39-25" value="&amp;lt;&amp;lt;includes&amp;gt;&amp;gt;" style="text;html=1;resizable=0;labelBackgroundColor=#ffffff;align=center;verticalAlign=middle;fontStyle=1;fontColor=#333333;;fontSize=13.3;" parent="bAnhzxqhdpHS4rBfya39-24" vertex="1">
          <mxGeometry relative="1" as="geometry" />
        </mxCell>
        <UserObject label="Semester" lucidchartObjectId="AneqoMVLHaOv" id="bAnhzxqhdpHS4rBfya39-26">
          <mxCell style="html=1;overflow=block;blockSpacing=1;whiteSpace=wrap;ellipse;whiteSpace=wrap;fontSize=13;spacing=3.8;strokeColor=#5e5e5e;strokeOpacity=100;rounded=1;absoluteArcSize=1;arcSize=9;strokeWidth=2.3;" parent="1" vertex="1">
            <mxGeometry x="1202" y="320" width="90" height="45" as="geometry" />
          </mxCell>
        </UserObject>
        <UserObject label="Select Course" lucidchartObjectId="Aneq7zE9KY6m" id="bAnhzxqhdpHS4rBfya39-27">
          <mxCell style="html=1;overflow=block;blockSpacing=1;whiteSpace=wrap;ellipse;whiteSpace=wrap;fontSize=13;spacing=3.8;strokeColor=#5e5e5e;strokeOpacity=100;rounded=1;absoluteArcSize=1;arcSize=9;strokeWidth=2.3;" parent="1" vertex="1">
            <mxGeometry x="1201" y="380" width="120" height="45" as="geometry" />
          </mxCell>
        </UserObject>
        <UserObject label="Select Year level" lucidchartObjectId="AneqSP~B~tGW" id="bAnhzxqhdpHS4rBfya39-28">
          <mxCell style="html=1;overflow=block;blockSpacing=1;whiteSpace=wrap;ellipse;whiteSpace=wrap;fontSize=13;spacing=3.8;strokeColor=#5e5e5e;strokeOpacity=100;rounded=1;absoluteArcSize=1;arcSize=9;strokeWidth=2.3;" parent="1" vertex="1">
            <mxGeometry x="1201" y="440" width="150" height="45" as="geometry" />
          </mxCell>
        </UserObject>
        <UserObject label="Enter Number of Students" lucidchartObjectId="Aneqh-0WBh-V" id="bAnhzxqhdpHS4rBfya39-29">
          <mxCell style="html=1;overflow=block;blockSpacing=1;whiteSpace=wrap;ellipse;whiteSpace=wrap;fontSize=13;spacing=3.8;strokeColor=#5e5e5e;strokeOpacity=100;rounded=1;absoluteArcSize=1;arcSize=9;strokeWidth=2.3;" parent="1" vertex="1">
            <mxGeometry x="1201" y="500" width="210" height="45" as="geometry" />
          </mxCell>
        </UserObject>
        <UserObject label="Calculate the number of block sections" lucidchartObjectId="AneqsE~QftCz" id="bAnhzxqhdpHS4rBfya39-30">
          <mxCell style="html=1;overflow=block;blockSpacing=1;whiteSpace=wrap;ellipse;whiteSpace=wrap;fontSize=13;spacing=3.8;strokeColor=#5e5e5e;strokeOpacity=100;rounded=1;absoluteArcSize=1;arcSize=9;strokeWidth=2.3;" parent="1" vertex="1">
            <mxGeometry x="1201" y="560" width="195" height="60" as="geometry" />
          </mxCell>
        </UserObject>
        <UserObject label="Display generated block sections" lucidchartObjectId="AneqJkKJ_Zp6" id="bAnhzxqhdpHS4rBfya39-31">
          <mxCell style="html=1;overflow=block;blockSpacing=1;whiteSpace=wrap;ellipse;whiteSpace=wrap;fontSize=13;spacing=3.8;strokeColor=#b85450;strokeOpacity=100;rounded=1;absoluteArcSize=1;arcSize=9;strokeWidth=2.3;fillColor=#f8cecc;" parent="1" vertex="1">
            <mxGeometry x="1202" y="635" width="195" height="60" as="geometry" />
          </mxCell>
        </UserObject>
        <UserObject label="view generated block sections" lucidchartObjectId="Aneqeoir4.h0" id="bAnhzxqhdpHS4rBfya39-32">
          <mxCell style="html=1;overflow=block;blockSpacing=1;whiteSpace=wrap;ellipse;whiteSpace=wrap;fontSize=13;spacing=3.8;strokeColor=#5e5e5e;strokeOpacity=100;rounded=1;absoluteArcSize=1;arcSize=9;strokeWidth=2.3;" parent="1" vertex="1">
            <mxGeometry x="662" y="545" width="263" height="45" as="geometry" />
          </mxCell>
        </UserObject>
        <UserObject label="" lucidchartObjectId="Aneqp.5LfCHs" id="bAnhzxqhdpHS4rBfya39-33">
          <mxCell style="html=1;jettySize=18;whiteSpace=wrap;fontSize=13;strokeColor=#5E5E5E;dashed=1;fixDash=1;dashPattern=3 8;strokeWidth=1.5;rounded=0;startArrow=none;;endArrow=open;;exitX=1.006;exitY=0.5;exitPerimeter=0;entryX=-0.011;entryY=0.5;entryPerimeter=0;" parent="1" source="bAnhzxqhdpHS4rBfya39-4" target="bAnhzxqhdpHS4rBfya39-6" edge="1">
            <mxGeometry width="100" height="100" relative="1" as="geometry">
              <Array as="points" />
            </mxGeometry>
          </mxCell>
        </UserObject>
        <UserObject label="" lucidchartObjectId="AneqPG0a5vvR" id="bAnhzxqhdpHS4rBfya39-34">
          <mxCell style="html=1;jettySize=18;whiteSpace=wrap;fontSize=13;strokeColor=#5E5E5E;dashed=1;fixDash=1;dashPattern=3 8;strokeWidth=1.5;rounded=0;startArrow=none;;endArrow=open;;exitX=1.006;exitY=0.5;exitPerimeter=0;entryX=-0.007;entryY=0.5;entryPerimeter=0;" parent="1" source="bAnhzxqhdpHS4rBfya39-4" target="bAnhzxqhdpHS4rBfya39-7" edge="1">
            <mxGeometry width="100" height="100" relative="1" as="geometry">
              <Array as="points" />
            </mxGeometry>
          </mxCell>
        </UserObject>
        <UserObject label="" lucidchartObjectId="AneqWk5ST1jY" id="bAnhzxqhdpHS4rBfya39-35">
          <mxCell style="html=1;jettySize=18;whiteSpace=wrap;fontSize=13;strokeColor=#5E5E5E;dashed=1;fixDash=1;dashPattern=3 8;strokeWidth=1.5;rounded=0;startArrow=none;;endArrow=open;;exitX=1.006;exitY=0.5;exitPerimeter=0;entryX=-0.007;entryY=0.5;entryPerimeter=0;" parent="1" source="bAnhzxqhdpHS4rBfya39-4" target="bAnhzxqhdpHS4rBfya39-10" edge="1">
            <mxGeometry width="100" height="100" relative="1" as="geometry">
              <Array as="points" />
            </mxGeometry>
          </mxCell>
        </UserObject>
        <mxCell id="bAnhzxqhdpHS4rBfya39-36" value="&amp;lt;&amp;lt;includes&amp;gt;&amp;gt;" style="text;html=1;resizable=0;labelBackgroundColor=#ffffff;align=center;verticalAlign=middle;fontStyle=1;fontColor=#333333;;fontSize=13.3;" parent="bAnhzxqhdpHS4rBfya39-35" vertex="1">
          <mxGeometry x="-0.6161254629819626" relative="1" as="geometry" />
        </mxCell>
        <UserObject label="" lucidchartObjectId="AneqknhTfIs7" id="bAnhzxqhdpHS4rBfya39-37">
          <mxCell style="html=1;jettySize=18;whiteSpace=wrap;fontSize=13;strokeColor=#5E5E5E;dashed=1;fixDash=1;dashPattern=3 8;strokeWidth=1.5;rounded=0;startArrow=none;;endArrow=open;;exitX=1.006;exitY=0.5;exitPerimeter=0;entryX=-0.006;entryY=0.5;entryPerimeter=0;" parent="1" source="bAnhzxqhdpHS4rBfya39-4" target="bAnhzxqhdpHS4rBfya39-8" edge="1">
            <mxGeometry width="100" height="100" relative="1" as="geometry">
              <Array as="points" />
            </mxGeometry>
          </mxCell>
        </UserObject>
        <UserObject label="" lucidchartObjectId="Aneqjf31_2y0" id="bAnhzxqhdpHS4rBfya39-38">
          <mxCell style="html=1;jettySize=18;whiteSpace=wrap;fontSize=13;strokeColor=#5E5E5E;dashed=1;fixDash=1;dashPattern=3 8;strokeWidth=1.5;rounded=0;startArrow=none;;endArrow=open;;exitX=1.006;exitY=0.5;exitPerimeter=0;entryX=-0.005;entryY=0.5;entryPerimeter=0;" parent="1" source="bAnhzxqhdpHS4rBfya39-4" target="bAnhzxqhdpHS4rBfya39-9" edge="1">
            <mxGeometry width="100" height="100" relative="1" as="geometry">
              <Array as="points" />
            </mxGeometry>
          </mxCell>
        </UserObject>
        <UserObject label="" lucidchartObjectId="AneqL5PV.bgo" id="bAnhzxqhdpHS4rBfya39-39">
          <mxCell style="html=1;jettySize=18;whiteSpace=wrap;fontSize=13;strokeColor=#5E5E5E;dashed=1;fixDash=1;dashPattern=3 8;strokeWidth=1.5;rounded=0;startArrow=none;;endArrow=open;;exitX=1.007;exitY=0.5;exitPerimeter=0;entryX=-0.007;entryY=0.5;entryPerimeter=0;" parent="1" source="bAnhzxqhdpHS4rBfya39-7" target="bAnhzxqhdpHS4rBfya39-11" edge="1">
            <mxGeometry width="100" height="100" relative="1" as="geometry">
              <Array as="points" />
            </mxGeometry>
          </mxCell>
        </UserObject>
        <UserObject label="" lucidchartObjectId="AneqGcXHRXgJ" id="bAnhzxqhdpHS4rBfya39-40">
          <mxCell style="html=1;jettySize=18;whiteSpace=wrap;fontSize=13;strokeColor=#5E5E5E;dashed=1;fixDash=1;dashPattern=3 8;strokeWidth=1.5;rounded=0;startArrow=none;;endArrow=open;;exitX=1.007;exitY=0.5;exitPerimeter=0;entryX=-0.007;entryY=0.5;entryPerimeter=0;" parent="1" source="bAnhzxqhdpHS4rBfya39-7" target="bAnhzxqhdpHS4rBfya39-12" edge="1">
            <mxGeometry width="100" height="100" relative="1" as="geometry">
              <Array as="points" />
            </mxGeometry>
          </mxCell>
        </UserObject>
        <mxCell id="bAnhzxqhdpHS4rBfya39-41" value="&amp;lt;&amp;lt;extends&amp;gt;&amp;gt;" style="text;html=1;resizable=0;labelBackgroundColor=#ffffff;align=center;verticalAlign=middle;fontStyle=1;fontColor=#333333;;fontSize=13.3;" parent="bAnhzxqhdpHS4rBfya39-40" vertex="1">
          <mxGeometry x="-0.5468516050058191" relative="1" as="geometry" />
        </mxCell>
        <UserObject label="" lucidchartObjectId="Aneq3_ekhaeI" id="bAnhzxqhdpHS4rBfya39-42">
          <mxCell style="html=1;jettySize=18;whiteSpace=wrap;fontSize=13;strokeColor=#5E5E5E;dashed=1;fixDash=1;dashPattern=3 8;strokeWidth=1.5;rounded=0;startArrow=none;;endArrow=open;;exitX=1.007;exitY=0.5;exitPerimeter=0;entryX=-0.006;entryY=0.5;entryPerimeter=0;" parent="1" source="bAnhzxqhdpHS4rBfya39-7" target="bAnhzxqhdpHS4rBfya39-13" edge="1">
            <mxGeometry width="100" height="100" relative="1" as="geometry">
              <Array as="points" />
            </mxGeometry>
          </mxCell>
        </UserObject>
        <UserObject label="" lucidchartObjectId="AneqZEt~kytd" id="bAnhzxqhdpHS4rBfya39-43">
          <mxCell style="html=1;jettySize=18;whiteSpace=wrap;fontSize=13;strokeColor=#5E5E5E;dashed=1;fixDash=1;dashPattern=3 8;strokeWidth=1.5;rounded=0;startArrow=none;;endArrow=open;;exitX=1.006;exitY=0.5;exitPerimeter=0;entryX=-0.007;entryY=0.5;entryPerimeter=0;" parent="1" source="bAnhzxqhdpHS4rBfya39-16" target="bAnhzxqhdpHS4rBfya39-18" edge="1">
            <mxGeometry width="100" height="100" relative="1" as="geometry">
              <Array as="points" />
            </mxGeometry>
          </mxCell>
        </UserObject>
        <UserObject label="" lucidchartObjectId="AneqyT3ewEgB" id="bAnhzxqhdpHS4rBfya39-44">
          <mxCell style="html=1;jettySize=18;whiteSpace=wrap;fontSize=13;strokeColor=#5E5E5E;dashed=1;fixDash=1;dashPattern=3 8;strokeWidth=1.5;rounded=0;startArrow=none;;endArrow=open;;exitX=1.006;exitY=0.5;exitPerimeter=0;entryX=-0.007;entryY=0.5;entryPerimeter=0;" parent="1" source="bAnhzxqhdpHS4rBfya39-16" target="bAnhzxqhdpHS4rBfya39-19" edge="1">
            <mxGeometry width="100" height="100" relative="1" as="geometry">
              <Array as="points" />
            </mxGeometry>
          </mxCell>
        </UserObject>
        <mxCell id="bAnhzxqhdpHS4rBfya39-45" value="&amp;lt;&amp;lt;extends&amp;gt;&amp;gt;" style="text;html=1;resizable=0;labelBackgroundColor=#ffffff;align=center;verticalAlign=middle;fontStyle=1;fontColor=#333333;;fontSize=13.3;" parent="bAnhzxqhdpHS4rBfya39-44" vertex="1">
          <mxGeometry x="-0.6546333130343465" relative="1" as="geometry" />
        </mxCell>
        <UserObject label="" lucidchartObjectId="AneqR-cTmHlN" id="bAnhzxqhdpHS4rBfya39-46">
          <mxCell style="html=1;jettySize=18;whiteSpace=wrap;fontSize=13;strokeColor=#5E5E5E;dashed=1;fixDash=1;dashPattern=3 8;strokeWidth=1.5;rounded=0;startArrow=none;;endArrow=open;;exitX=1.006;exitY=0.5;exitPerimeter=0;entryX=-0.006;entryY=0.5;entryPerimeter=0;" parent="1" source="bAnhzxqhdpHS4rBfya39-16" target="bAnhzxqhdpHS4rBfya39-20" edge="1">
            <mxGeometry width="100" height="100" relative="1" as="geometry">
              <Array as="points" />
            </mxGeometry>
          </mxCell>
        </UserObject>
        <UserObject label="" lucidchartObjectId="Aneq1N3~~D1s" id="bAnhzxqhdpHS4rBfya39-47">
          <mxCell style="html=1;jettySize=18;whiteSpace=wrap;fontSize=13;strokeColor=#5E5E5E;dashed=1;fixDash=1;dashPattern=3 8;strokeWidth=1.5;rounded=0;startArrow=none;;endArrow=open;endFill=0;;exitX=1.006;exitY=0.5;exitPerimeter=0;entryX=-0.013;entryY=0.5;entryPerimeter=0;" parent="1" source="bAnhzxqhdpHS4rBfya39-23" target="bAnhzxqhdpHS4rBfya39-26" edge="1">
            <mxGeometry width="100" height="100" relative="1" as="geometry">
              <Array as="points" />
            </mxGeometry>
          </mxCell>
        </UserObject>
        <UserObject label="" lucidchartObjectId="Aneqhz-JFMRx" id="bAnhzxqhdpHS4rBfya39-48">
          <mxCell style="html=1;jettySize=18;whiteSpace=wrap;fontSize=13;strokeColor=#5E5E5E;dashed=1;fixDash=1;dashPattern=3 8;strokeWidth=1.5;rounded=0;startArrow=none;;endArrow=open;endFill=0;;exitX=1.006;exitY=0.5;exitPerimeter=0;entryX=-0.009;entryY=0.5;entryPerimeter=0;" parent="1" source="bAnhzxqhdpHS4rBfya39-23" target="bAnhzxqhdpHS4rBfya39-27" edge="1">
            <mxGeometry width="100" height="100" relative="1" as="geometry">
              <Array as="points" />
            </mxGeometry>
          </mxCell>
        </UserObject>
        <UserObject label="" lucidchartObjectId="Aneq1pQIe5y." id="bAnhzxqhdpHS4rBfya39-49">
          <mxCell style="html=1;jettySize=18;whiteSpace=wrap;fontSize=13;strokeColor=#5E5E5E;dashed=1;fixDash=1;dashPattern=3 8;strokeWidth=1.5;rounded=0;startArrow=none;;endArrow=open;endFill=0;;exitX=1.006;exitY=0.5;exitPerimeter=0;entryX=-0.008;entryY=0.5;entryPerimeter=0;" parent="1" source="bAnhzxqhdpHS4rBfya39-23" target="bAnhzxqhdpHS4rBfya39-28" edge="1">
            <mxGeometry width="100" height="100" relative="1" as="geometry">
              <Array as="points" />
            </mxGeometry>
          </mxCell>
        </UserObject>
        <mxCell id="bAnhzxqhdpHS4rBfya39-50" value="&amp;lt;&amp;lt;includes&amp;gt;&amp;gt;" style="text;html=1;resizable=0;labelBackgroundColor=#ffffff;align=center;verticalAlign=middle;fontStyle=1;fontColor=#333333;;fontSize=13.3;" parent="bAnhzxqhdpHS4rBfya39-49" vertex="1">
          <mxGeometry x="-0.49915356132802424" relative="1" as="geometry" />
        </mxCell>
        <UserObject label="" lucidchartObjectId="AnequhzK9IdL" id="bAnhzxqhdpHS4rBfya39-51">
          <mxCell style="html=1;jettySize=18;whiteSpace=wrap;fontSize=13;strokeColor=#5E5E5E;dashed=1;fixDash=1;dashPattern=3 8;strokeWidth=1.5;rounded=0;startArrow=none;;endArrow=open;endFill=0;;exitX=1.006;exitY=0.5;exitPerimeter=0;entryX=-0.005;entryY=0.5;entryPerimeter=0;" parent="1" source="bAnhzxqhdpHS4rBfya39-23" target="bAnhzxqhdpHS4rBfya39-29" edge="1">
            <mxGeometry width="100" height="100" relative="1" as="geometry">
              <Array as="points" />
            </mxGeometry>
          </mxCell>
        </UserObject>
        <UserObject label="" lucidchartObjectId="AneqRQW1Br8j" id="bAnhzxqhdpHS4rBfya39-52">
          <mxCell style="html=1;jettySize=18;whiteSpace=wrap;fontSize=13;strokeColor=#5E5E5E;dashed=1;fixDash=1;dashPattern=3 8;strokeWidth=1.5;rounded=0;startArrow=none;;endArrow=open;endFill=0;;exitX=0.5;exitY=1.025;exitPerimeter=0;entryX=-0.006;entryY=0.5;entryPerimeter=0;" parent="1" source="bAnhzxqhdpHS4rBfya39-23" target="bAnhzxqhdpHS4rBfya39-30" edge="1">
            <mxGeometry width="100" height="100" relative="1" as="geometry">
              <Array as="points" />
            </mxGeometry>
          </mxCell>
        </UserObject>
        <UserObject label="" lucidchartObjectId="AneqfmRKlZRo" id="bAnhzxqhdpHS4rBfya39-53">
          <mxCell style="html=1;jettySize=18;whiteSpace=wrap;fontSize=13;strokeColor=#5E5E5E;dashed=1;fixDash=1;dashPattern=3 8;strokeWidth=1.5;rounded=0;startArrow=none;;endArrow=open;endFill=0;;exitX=0.5;exitY=1.025;exitPerimeter=0;entryX=-0.006;entryY=0.5;entryPerimeter=0;" parent="1" source="bAnhzxqhdpHS4rBfya39-23" target="bAnhzxqhdpHS4rBfya39-31" edge="1">
            <mxGeometry width="100" height="100" relative="1" as="geometry">
              <Array as="points" />
            </mxGeometry>
          </mxCell>
        </UserObject>
        <mxCell id="bAnhzxqhdpHS4rBfya39-54" value="&amp;lt;&amp;lt;extends&amp;gt;&amp;gt;" style="text;html=1;resizable=0;labelBackgroundColor=#ffffff;align=center;verticalAlign=middle;fontStyle=1;fontColor=#333333;;fontSize=13.3;" parent="bAnhzxqhdpHS4rBfya39-53" vertex="1">
          <mxGeometry x="-0.7183083253936634" relative="1" as="geometry">
            <mxPoint x="16" as="offset" />
          </mxGeometry>
        </mxCell>
        <mxCell id="bAnhzxqhdpHS4rBfya39-130" style="edgeStyle=orthogonalEdgeStyle;rounded=0;orthogonalLoop=1;jettySize=auto;html=1;exitX=0;exitY=0;exitDx=0;exitDy=0;endArrow=open;endFill=0;" parent="bAnhzxqhdpHS4rBfya39-53" source="bAnhzxqhdpHS4rBfya39-54" target="bAnhzxqhdpHS4rBfya39-54" edge="1">
          <mxGeometry relative="1" as="geometry" />
        </mxCell>
        <UserObject label="" lucidchartObjectId="Aneqyxa0sE78" id="bAnhzxqhdpHS4rBfya39-55">
          <mxCell style="html=1;jettySize=18;whiteSpace=wrap;fontSize=13;strokeColor=#5E5E5E;dashed=1;fixDash=1;dashPattern=3 8;strokeWidth=1.5;rounded=0;startArrow=none;;endArrow=open;;exitX=1.006;exitY=0.5;exitPerimeter=0;entryX=-0.004;entryY=0.5;entryPerimeter=0;" parent="1" source="bAnhzxqhdpHS4rBfya39-21" target="bAnhzxqhdpHS4rBfya39-32" edge="1">
            <mxGeometry width="100" height="100" relative="1" as="geometry">
              <Array as="points" />
            </mxGeometry>
          </mxCell>
        </UserObject>
        <UserObject label="" lucidchartObjectId="AneqqJCCCMbQ" id="bAnhzxqhdpHS4rBfya39-56">
          <mxCell style="html=1;jettySize=18;whiteSpace=wrap;fontSize=13;strokeColor=#5E5E5E;dashed=1;fixDash=1;dashPattern=3 8;strokeWidth=1.5;rounded=0;startArrow=none;;endArrow=open;;exitX=1.004;exitY=0.5;exitPerimeter=0;entryX=0.5;entryY=-0.025;entryPerimeter=0;" parent="1" source="bAnhzxqhdpHS4rBfya39-32" target="bAnhzxqhdpHS4rBfya39-58" edge="1">
            <mxGeometry width="100" height="100" relative="1" as="geometry">
              <Array as="points" />
            </mxGeometry>
          </mxCell>
        </UserObject>
        <mxCell id="bAnhzxqhdpHS4rBfya39-57" value="&amp;lt;&amp;lt;include&amp;gt;&amp;gt;" style="text;html=1;resizable=0;labelBackgroundColor=#ffffff;align=center;verticalAlign=middle;fontStyle=1;fontColor=#333333;;fontSize=13.3;" parent="bAnhzxqhdpHS4rBfya39-56" vertex="1">
          <mxGeometry relative="1" as="geometry" />
        </mxCell>
        <UserObject label="view block section info" lucidchartObjectId="AneqY1.xOmuX" id="bAnhzxqhdpHS4rBfya39-58">
          <mxCell style="html=1;overflow=block;blockSpacing=1;whiteSpace=wrap;ellipse;whiteSpace=wrap;fontSize=13;spacing=3.8;strokeColor=#b85450;strokeOpacity=100;rounded=1;absoluteArcSize=1;arcSize=9;strokeWidth=2.3;fillColor=#f8cecc;" parent="1" vertex="1">
            <mxGeometry x="962" y="673" width="195" height="45" as="geometry" />
          </mxCell>
        </UserObject>
        <UserObject label="Sort Block Sections" lucidchartObjectId="AneqcKQtwko9" id="bAnhzxqhdpHS4rBfya39-59">
          <mxCell style="html=1;overflow=block;blockSpacing=1;whiteSpace=wrap;ellipse;whiteSpace=wrap;fontSize=13;spacing=3.8;strokeColor=#b85450;strokeOpacity=100;rounded=1;absoluteArcSize=1;arcSize=9;strokeWidth=2.3;fillColor=#f8cecc;" parent="1" vertex="1">
            <mxGeometry x="610" y="690" width="105" height="60" as="geometry" />
          </mxCell>
        </UserObject>
        <UserObject label="Filter Block Sections" lucidchartObjectId="Anequ_CMcIwF" id="bAnhzxqhdpHS4rBfya39-60">
          <mxCell style="html=1;overflow=block;blockSpacing=1;whiteSpace=wrap;ellipse;whiteSpace=wrap;fontSize=13;spacing=3.8;strokeColor=#b85450;strokeOpacity=100;rounded=1;absoluteArcSize=1;arcSize=9;strokeWidth=2.3;fillColor=#f8cecc;" parent="1" vertex="1">
            <mxGeometry x="480" y="650" width="105" height="60" as="geometry" />
          </mxCell>
        </UserObject>
        <UserObject label="" lucidchartObjectId="AneqSBooyyIP" id="bAnhzxqhdpHS4rBfya39-61">
          <mxCell style="html=1;jettySize=18;whiteSpace=wrap;fontSize=13;strokeColor=#5E5E5E;dashed=1;fixDash=1;dashPattern=3 8;strokeWidth=1.5;rounded=0;startArrow=none;;endArrow=open;;exitX=0.5;exitY=1.025;exitPerimeter=0;entryX=0.5;entryY=-0.019;entryPerimeter=0;" parent="1" source="bAnhzxqhdpHS4rBfya39-32" target="bAnhzxqhdpHS4rBfya39-59" edge="1">
            <mxGeometry width="100" height="100" relative="1" as="geometry">
              <Array as="points" />
            </mxGeometry>
          </mxCell>
        </UserObject>
        <UserObject label="" lucidchartObjectId="AneqdPCOroms" id="bAnhzxqhdpHS4rBfya39-62">
          <mxCell style="html=1;jettySize=18;whiteSpace=wrap;fontSize=13;strokeColor=#5E5E5E;dashed=1;fixDash=1;dashPattern=3 8;strokeWidth=1.5;rounded=0;startArrow=none;;endArrow=open;;exitX=0.5;exitY=1.025;exitPerimeter=0;entryX=0.5;entryY=-0.019;entryPerimeter=0;" parent="1" source="bAnhzxqhdpHS4rBfya39-32" target="bAnhzxqhdpHS4rBfya39-60" edge="1">
            <mxGeometry width="100" height="100" relative="1" as="geometry">
              <Array as="points" />
            </mxGeometry>
          </mxCell>
        </UserObject>
        <mxCell id="bAnhzxqhdpHS4rBfya39-63" value="&amp;lt;&amp;lt;extends&amp;gt;&amp;gt;" style="text;html=1;resizable=0;labelBackgroundColor=#ffffff;align=center;verticalAlign=middle;fontStyle=1;fontColor=#333333;;fontSize=13.3;" parent="bAnhzxqhdpHS4rBfya39-62" vertex="1">
          <mxGeometry x="0.2760498041064525" relative="1" as="geometry">
            <mxPoint x="83" y="-8" as="offset" />
          </mxGeometry>
        </mxCell>
        <UserObject label="" lucidchartObjectId="Aneq8oyg9y-w" id="bAnhzxqhdpHS4rBfya39-64">
          <mxCell style="html=1;jettySize=18;whiteSpace=wrap;fontSize=13;strokeColor=#5E5E5E;dashed=1;fixDash=1;dashPattern=3 8;strokeWidth=1.5;rounded=0;startArrow=none;;endArrow=open;endFill=0;;exitX=0.751;exitY=0.957;exitPerimeter=0;entryX=-0.006;entryY=0.5;entryPerimeter=0;" parent="1" source="bAnhzxqhdpHS4rBfya39-58" target="bAnhzxqhdpHS4rBfya39-65" edge="1">
            <mxGeometry width="100" height="100" relative="1" as="geometry">
              <Array as="points" />
            </mxGeometry>
          </mxCell>
        </UserObject>
        <UserObject label="view course description" lucidchartObjectId="AneqMCE1SQyz" id="bAnhzxqhdpHS4rBfya39-65">
          <mxCell style="html=1;overflow=block;blockSpacing=1;whiteSpace=wrap;ellipse;whiteSpace=wrap;fontSize=13;spacing=3.8;strokeColor=#b85450;strokeOpacity=100;rounded=1;absoluteArcSize=1;arcSize=9;strokeWidth=2.3;fillColor=#f8cecc;" parent="1" vertex="1">
            <mxGeometry x="1202" y="770" width="195" height="45" as="geometry" />
          </mxCell>
        </UserObject>
        <UserObject label="view semester and year_level" lucidchartObjectId="AneqkxskUaT5" id="bAnhzxqhdpHS4rBfya39-66">
          <mxCell style="html=1;overflow=block;blockSpacing=1;whiteSpace=wrap;ellipse;whiteSpace=wrap;fontSize=13;spacing=3.8;strokeColor=#b85450;strokeOpacity=100;rounded=1;absoluteArcSize=1;arcSize=9;strokeWidth=2.3;fillColor=#f8cecc;" parent="1" vertex="1">
            <mxGeometry x="1202" y="825" width="226" height="45" as="geometry" />
          </mxCell>
        </UserObject>
        <UserObject label="" lucidchartObjectId="AneqyH_trFUD" id="bAnhzxqhdpHS4rBfya39-67">
          <mxCell style="html=1;jettySize=18;whiteSpace=wrap;fontSize=13;strokeColor=#5E5E5E;dashed=1;fixDash=1;dashPattern=3 8;strokeWidth=1.5;rounded=0;startArrow=none;;endArrow=open;endFill=0;;exitX=0.751;exitY=0.957;exitPerimeter=0;entryX=-0.005;entryY=0.5;entryPerimeter=0;" parent="1" source="bAnhzxqhdpHS4rBfya39-58" target="bAnhzxqhdpHS4rBfya39-66" edge="1">
            <mxGeometry width="100" height="100" relative="1" as="geometry">
              <Array as="points" />
            </mxGeometry>
          </mxCell>
        </UserObject>
        <UserObject label="&lt;div style=&quot;display: flex; justify-content: center; text-align: center; align-items: baseline; font-size: 0; line-height: 1.25;margin-top: -2px;&quot;&gt;&lt;span&gt;&lt;span style=&quot;font-size:13px;&quot;&gt;view &lt;/span&gt;&lt;span style=&quot;font-size:13px;color:#000000;&quot;&gt;corresponding subjects&lt;/span&gt;&lt;/span&gt;&lt;/div&gt;" lucidchartObjectId="AneqDRLRN_jn" id="bAnhzxqhdpHS4rBfya39-68">
          <mxCell style="html=1;overflow=block;blockSpacing=1;whiteSpace=wrap;ellipse;whiteSpace=wrap;fontSize=13;spacing=3.8;strokeColor=#b85450;strokeOpacity=100;rounded=1;absoluteArcSize=1;arcSize=9;strokeWidth=2.3;fillColor=#f8cecc;" parent="1" vertex="1">
            <mxGeometry x="1208" y="890" width="226" height="45" as="geometry" />
          </mxCell>
        </UserObject>
        <UserObject label="" lucidchartObjectId="AneqyH_trFUD" id="bAnhzxqhdpHS4rBfya39-69">
          <mxCell style="html=1;jettySize=18;whiteSpace=wrap;fontSize=13;strokeColor=#5E5E5E;dashed=1;fixDash=1;dashPattern=3 8;strokeWidth=1.5;rounded=0;startArrow=none;;endArrow=open;endFill=0;;exitX=0.763;exitY=0.968;exitPerimeter=0;exitDx=0;exitDy=0;entryX=0;entryY=0.5;entryDx=0;entryDy=0;" parent="1" source="bAnhzxqhdpHS4rBfya39-58" target="bAnhzxqhdpHS4rBfya39-68" edge="1">
            <mxGeometry width="100" height="100" relative="1" as="geometry">
              <Array as="points" />
              <mxPoint x="1118.4449999999997" y="726.065" as="sourcePoint" />
              <mxPoint x="1190" y="910" as="targetPoint" />
            </mxGeometry>
          </mxCell>
        </UserObject>
        <UserObject label="" lucidchartObjectId="AneqqJCCCMbQ" id="bAnhzxqhdpHS4rBfya39-74">
          <mxCell style="html=1;jettySize=18;whiteSpace=wrap;fontSize=13;strokeColor=#5E5E5E;dashed=1;fixDash=1;dashPattern=3 8;strokeWidth=1.5;rounded=0;startArrow=none;;endArrow=open;;exitX=0.5;exitY=1;exitDx=0;exitDy=0;entryX=0.5;entryY=0;entryDx=0;entryDy=0;" parent="1" source="bAnhzxqhdpHS4rBfya39-32" target="bAnhzxqhdpHS4rBfya39-76" edge="1">
            <mxGeometry width="100" height="100" relative="1" as="geometry">
              <Array as="points" />
              <mxPoint x="843.5520000000001" y="710.31" as="sourcePoint" />
              <mxPoint x="970" y="800" as="targetPoint" />
            </mxGeometry>
          </mxCell>
        </UserObject>
        <mxCell id="bAnhzxqhdpHS4rBfya39-75" value="&amp;lt;&amp;lt;include&amp;gt;&amp;gt;" style="text;html=1;resizable=0;labelBackgroundColor=#ffffff;align=center;verticalAlign=middle;fontStyle=1;fontColor=#333333;;fontSize=13.3;" parent="bAnhzxqhdpHS4rBfya39-74" vertex="1">
          <mxGeometry relative="1" as="geometry">
            <mxPoint x="22" y="40" as="offset" />
          </mxGeometry>
        </mxCell>
        <UserObject label="select block section" lucidchartObjectId="AneqY1.xOmuX" id="bAnhzxqhdpHS4rBfya39-76">
          <mxCell style="html=1;overflow=block;blockSpacing=1;whiteSpace=wrap;ellipse;whiteSpace=wrap;fontSize=13;spacing=3.8;strokeColor=#b85450;strokeOpacity=100;rounded=1;absoluteArcSize=1;arcSize=9;strokeWidth=2.3;fillColor=#f8cecc;" parent="1" vertex="1">
            <mxGeometry x="900" y="860" width="195" height="45" as="geometry" />
          </mxCell>
        </UserObject>
        <UserObject label="automate block section schedule" lucidchartObjectId="AneqY1.xOmuX" id="bAnhzxqhdpHS4rBfya39-77">
          <mxCell style="html=1;overflow=block;blockSpacing=1;whiteSpace=wrap;ellipse;whiteSpace=wrap;fontSize=13;spacing=3.8;strokeColor=#b85450;strokeOpacity=100;rounded=1;absoluteArcSize=1;arcSize=9;strokeWidth=2.3;fillColor=#f8cecc;" parent="1" vertex="1">
            <mxGeometry x="1208" y="960" width="210" height="50" as="geometry" />
          </mxCell>
        </UserObject>
        <UserObject label="Display block section generated schedule in a tabular format" lucidchartObjectId="AneqJkKJ_Zp6" id="bAnhzxqhdpHS4rBfya39-79">
          <mxCell style="html=1;overflow=block;blockSpacing=1;whiteSpace=wrap;ellipse;whiteSpace=wrap;fontSize=13;spacing=3.8;strokeColor=#b85450;strokeOpacity=100;rounded=1;absoluteArcSize=1;arcSize=9;strokeWidth=2.3;fillColor=#f8cecc;" parent="1" vertex="1">
            <mxGeometry x="1208" y="1030" width="219" height="70" as="geometry" />
          </mxCell>
        </UserObject>
        <UserObject label="" lucidchartObjectId="AneqyH_trFUD" id="bAnhzxqhdpHS4rBfya39-80">
          <mxCell style="html=1;jettySize=18;whiteSpace=wrap;fontSize=13;strokeColor=#5E5E5E;dashed=1;fixDash=1;dashPattern=3 8;strokeWidth=1.5;rounded=0;startArrow=none;;endArrow=open;endFill=0;;entryX=0;entryY=0.5;entryDx=0;entryDy=0;exitX=1;exitY=1;exitDx=0;exitDy=0;" parent="1" source="bAnhzxqhdpHS4rBfya39-76" target="bAnhzxqhdpHS4rBfya39-79" edge="1">
            <mxGeometry width="100" height="100" relative="1" as="geometry">
              <Array as="points" />
              <mxPoint x="1020" y="910" as="sourcePoint" />
              <mxPoint x="1121" y="1005" as="targetPoint" />
            </mxGeometry>
          </mxCell>
        </UserObject>
        <UserObject label="Save or re-genrate block section schedule" lucidchartObjectId="AneqJkKJ_Zp6" id="bAnhzxqhdpHS4rBfya39-81">
          <mxCell style="html=1;overflow=block;blockSpacing=1;whiteSpace=wrap;ellipse;whiteSpace=wrap;fontSize=13;spacing=3.8;strokeColor=#b85450;strokeOpacity=100;rounded=1;absoluteArcSize=1;arcSize=9;strokeWidth=2.3;fillColor=#f8cecc;" parent="1" vertex="1">
            <mxGeometry x="1211.5" y="1120" width="218.5" height="70" as="geometry" />
          </mxCell>
        </UserObject>
        <UserObject label="" lucidchartObjectId="AneqyH_trFUD" id="bAnhzxqhdpHS4rBfya39-82">
          <mxCell style="html=1;jettySize=18;whiteSpace=wrap;fontSize=13;strokeColor=#5E5E5E;dashed=1;fixDash=1;dashPattern=3 8;strokeWidth=1.5;rounded=0;startArrow=none;;endArrow=open;endFill=0;;entryX=0;entryY=0.5;entryDx=0;entryDy=0;exitX=1;exitY=1;exitDx=0;exitDy=0;" parent="1" source="bAnhzxqhdpHS4rBfya39-76" target="bAnhzxqhdpHS4rBfya39-81" edge="1">
            <mxGeometry width="100" height="100" relative="1" as="geometry">
              <Array as="points" />
              <mxPoint x="1020" y="910" as="sourcePoint" />
              <mxPoint x="1121" y="1095" as="targetPoint" />
            </mxGeometry>
          </mxCell>
        </UserObject>
        <mxCell id="bAnhzxqhdpHS4rBfya39-83" value="&amp;lt;&amp;lt;extends&amp;gt;&amp;gt;" style="text;html=1;resizable=0;labelBackgroundColor=#ffffff;align=center;verticalAlign=middle;fontStyle=1;fontColor=#333333;;fontSize=13.3;" parent="1" vertex="1">
          <mxGeometry x="1099.9991469101858" y="929.9982315566501" as="geometry" />
        </mxCell>
        <UserObject label="" lucidchartObjectId="AneqyH_trFUD" id="bAnhzxqhdpHS4rBfya39-86">
          <mxCell style="html=1;jettySize=18;whiteSpace=wrap;fontSize=13;strokeColor=#5E5E5E;dashed=1;fixDash=1;dashPattern=3 8;strokeWidth=1.5;rounded=0;startArrow=none;;endArrow=open;endFill=0;;entryX=0;entryY=0.5;entryDx=0;entryDy=0;exitX=1;exitY=1;exitDx=0;exitDy=0;" parent="1" source="bAnhzxqhdpHS4rBfya39-76" target="bAnhzxqhdpHS4rBfya39-77" edge="1">
            <mxGeometry width="100" height="100" relative="1" as="geometry">
              <Array as="points" />
              <mxPoint x="1130" y="930" as="sourcePoint" />
              <mxPoint x="1130.0000000000014" y="1085" as="targetPoint" />
            </mxGeometry>
          </mxCell>
        </UserObject>
        <mxCell id="bAnhzxqhdpHS4rBfya39-92" style="edgeStyle=orthogonalEdgeStyle;rounded=0;orthogonalLoop=1;jettySize=auto;html=1;exitX=0;exitY=0;exitDx=0;exitDy=0;endArrow=open;endFill=0;" parent="1" source="bAnhzxqhdpHS4rBfya39-83" target="bAnhzxqhdpHS4rBfya39-83" edge="1">
          <mxGeometry relative="1" as="geometry" />
        </mxCell>
        <UserObject label="View Automated Schedules" lucidchartObjectId="AneqSfKo16TX" id="bAnhzxqhdpHS4rBfya39-93">
          <mxCell style="html=1;overflow=block;blockSpacing=1;whiteSpace=wrap;ellipse;whiteSpace=wrap;fontSize=13;spacing=3.8;strokeColor=#9673a6;strokeOpacity=100;rounded=1;absoluteArcSize=1;arcSize=9;strokeWidth=2.3;fillColor=#e1d5e7;" parent="1" vertex="1">
            <mxGeometry x="380" y="815" width="195" height="55" as="geometry" />
          </mxCell>
        </UserObject>
        <UserObject label="" lucidchartObjectId="Aneq3utgzdq2" id="bAnhzxqhdpHS4rBfya39-94">
          <mxCell style="html=1;jettySize=18;whiteSpace=wrap;fontSize=13;strokeColor=#5E5E5E;strokeWidth=1.5;rounded=0;startArrow=none;;endArrow=none;;exitX=0.5;exitY=0;exitDx=0;exitDy=0;entryX=1;entryY=0.3333333333333333;entryDx=0;entryDy=0;entryPerimeter=0;" parent="1" source="bAnhzxqhdpHS4rBfya39-93" target="bAnhzxqhdpHS4rBfya39-14" edge="1">
            <mxGeometry width="100" height="100" relative="1" as="geometry">
              <Array as="points" />
              <mxPoint x="190" y="210" as="targetPoint" />
              <mxPoint x="430.9200000000005" y="412.5" as="sourcePoint" />
            </mxGeometry>
          </mxCell>
        </UserObject>
        <UserObject label="Automate Schedule" lucidchartObjectId="AneqSfKo16TX" id="bAnhzxqhdpHS4rBfya39-95">
          <mxCell style="html=1;overflow=block;blockSpacing=1;whiteSpace=wrap;ellipse;whiteSpace=wrap;fontSize=13;spacing=3.8;strokeColor=#5e5e5e;strokeOpacity=100;rounded=1;absoluteArcSize=1;arcSize=9;strokeWidth=2.3;" parent="1" vertex="1">
            <mxGeometry x="422" y="380" width="180" height="45" as="geometry" />
          </mxCell>
        </UserObject>
        <UserObject label="generate block sections" lucidchartObjectId="AneqkTmM1-b1" id="bAnhzxqhdpHS4rBfya39-96">
          <mxCell style="html=1;overflow=block;blockSpacing=1;whiteSpace=wrap;ellipse;whiteSpace=wrap;fontSize=13;spacing=3.8;strokeColor=#5e5e5e;strokeOpacity=100;rounded=1;absoluteArcSize=1;arcSize=9;strokeWidth=2.3;" parent="1" vertex="1">
            <mxGeometry x="871" y="440" width="180" height="45" as="geometry" />
          </mxCell>
        </UserObject>
        <UserObject label="view generated block sections" lucidchartObjectId="Aneqeoir4.h0" id="bAnhzxqhdpHS4rBfya39-97">
          <mxCell style="html=1;overflow=block;blockSpacing=1;whiteSpace=wrap;ellipse;whiteSpace=wrap;fontSize=13;spacing=3.8;strokeColor=#5e5e5e;strokeOpacity=100;rounded=1;absoluteArcSize=1;arcSize=9;strokeWidth=2.3;" parent="1" vertex="1">
            <mxGeometry x="662" y="545" width="263" height="45" as="geometry" />
          </mxCell>
        </UserObject>
        <UserObject label="Semester" lucidchartObjectId="AneqoMVLHaOv" id="bAnhzxqhdpHS4rBfya39-98">
          <mxCell style="html=1;overflow=block;blockSpacing=1;whiteSpace=wrap;ellipse;whiteSpace=wrap;fontSize=13;spacing=3.8;strokeColor=#5e5e5e;strokeOpacity=100;rounded=1;absoluteArcSize=1;arcSize=9;strokeWidth=2.3;" parent="1" vertex="1">
            <mxGeometry x="1202" y="320" width="90" height="45" as="geometry" />
          </mxCell>
        </UserObject>
        <UserObject label="Select Course" lucidchartObjectId="Aneq7zE9KY6m" id="bAnhzxqhdpHS4rBfya39-99">
          <mxCell style="html=1;overflow=block;blockSpacing=1;whiteSpace=wrap;ellipse;whiteSpace=wrap;fontSize=13;spacing=3.8;strokeColor=#5e5e5e;strokeOpacity=100;rounded=1;absoluteArcSize=1;arcSize=9;strokeWidth=2.3;" parent="1" vertex="1">
            <mxGeometry x="1201" y="380" width="120" height="45" as="geometry" />
          </mxCell>
        </UserObject>
        <UserObject label="Select Year level" lucidchartObjectId="AneqSP~B~tGW" id="bAnhzxqhdpHS4rBfya39-100">
          <mxCell style="html=1;overflow=block;blockSpacing=1;whiteSpace=wrap;ellipse;whiteSpace=wrap;fontSize=13;spacing=3.8;strokeColor=#5e5e5e;strokeOpacity=100;rounded=1;absoluteArcSize=1;arcSize=9;strokeWidth=2.3;" parent="1" vertex="1">
            <mxGeometry x="1201" y="440" width="150" height="45" as="geometry" />
          </mxCell>
        </UserObject>
        <UserObject label="Enter Number of Students" lucidchartObjectId="Aneqh-0WBh-V" id="bAnhzxqhdpHS4rBfya39-101">
          <mxCell style="html=1;overflow=block;blockSpacing=1;whiteSpace=wrap;ellipse;whiteSpace=wrap;fontSize=13;spacing=3.8;strokeColor=#5e5e5e;strokeOpacity=100;rounded=1;absoluteArcSize=1;arcSize=9;strokeWidth=2.3;" parent="1" vertex="1">
            <mxGeometry x="1201" y="500" width="210" height="45" as="geometry" />
          </mxCell>
        </UserObject>
        <UserObject label="Calculate the number of block sections" lucidchartObjectId="AneqsE~QftCz" id="bAnhzxqhdpHS4rBfya39-102">
          <mxCell style="html=1;overflow=block;blockSpacing=1;whiteSpace=wrap;ellipse;whiteSpace=wrap;fontSize=13;spacing=3.8;strokeColor=#5e5e5e;strokeOpacity=100;rounded=1;absoluteArcSize=1;arcSize=9;strokeWidth=2.3;" parent="1" vertex="1">
            <mxGeometry x="1201" y="560" width="195" height="60" as="geometry" />
          </mxCell>
        </UserObject>
        <UserObject label="Automate Schedule" lucidchartObjectId="AneqSfKo16TX" id="bAnhzxqhdpHS4rBfya39-103">
          <mxCell style="html=1;overflow=block;blockSpacing=1;whiteSpace=wrap;ellipse;whiteSpace=wrap;fontSize=13;spacing=3.8;strokeColor=#b85450;strokeOpacity=100;rounded=1;absoluteArcSize=1;arcSize=9;strokeWidth=2.3;fillColor=#f8cecc;" parent="1" vertex="1">
            <mxGeometry x="422" y="380" width="180" height="45" as="geometry" />
          </mxCell>
        </UserObject>
        <UserObject label="generate block sections" lucidchartObjectId="AneqkTmM1-b1" id="bAnhzxqhdpHS4rBfya39-104">
          <mxCell style="html=1;overflow=block;blockSpacing=1;whiteSpace=wrap;ellipse;whiteSpace=wrap;fontSize=13;spacing=3.8;strokeColor=#b85450;strokeOpacity=100;rounded=1;absoluteArcSize=1;arcSize=9;strokeWidth=2.3;fillColor=#f8cecc;" parent="1" vertex="1">
            <mxGeometry x="871" y="440" width="180" height="45" as="geometry" />
          </mxCell>
        </UserObject>
        <UserObject label="view generated block sections" lucidchartObjectId="Aneqeoir4.h0" id="bAnhzxqhdpHS4rBfya39-105">
          <mxCell style="html=1;overflow=block;blockSpacing=1;whiteSpace=wrap;ellipse;whiteSpace=wrap;fontSize=13;spacing=3.8;strokeColor=#b85450;strokeOpacity=100;rounded=1;absoluteArcSize=1;arcSize=9;strokeWidth=2.3;fillColor=#f8cecc;" parent="1" vertex="1">
            <mxGeometry x="662" y="545" width="263" height="45" as="geometry" />
          </mxCell>
        </UserObject>
        <UserObject label="Semester" lucidchartObjectId="AneqoMVLHaOv" id="bAnhzxqhdpHS4rBfya39-106">
          <mxCell style="html=1;overflow=block;blockSpacing=1;whiteSpace=wrap;ellipse;whiteSpace=wrap;fontSize=13;spacing=3.8;strokeColor=#b85450;strokeOpacity=100;rounded=1;absoluteArcSize=1;arcSize=9;strokeWidth=2.3;fillColor=#f8cecc;" parent="1" vertex="1">
            <mxGeometry x="1202" y="320" width="90" height="45" as="geometry" />
          </mxCell>
        </UserObject>
        <UserObject label="Select Course" lucidchartObjectId="Aneq7zE9KY6m" id="bAnhzxqhdpHS4rBfya39-107">
          <mxCell style="html=1;overflow=block;blockSpacing=1;whiteSpace=wrap;ellipse;whiteSpace=wrap;fontSize=13;spacing=3.8;strokeColor=#b85450;strokeOpacity=100;rounded=1;absoluteArcSize=1;arcSize=9;strokeWidth=2.3;fillColor=#f8cecc;" parent="1" vertex="1">
            <mxGeometry x="1201" y="380" width="120" height="45" as="geometry" />
          </mxCell>
        </UserObject>
        <UserObject label="Select Year level" lucidchartObjectId="AneqSP~B~tGW" id="bAnhzxqhdpHS4rBfya39-108">
          <mxCell style="html=1;overflow=block;blockSpacing=1;whiteSpace=wrap;ellipse;whiteSpace=wrap;fontSize=13;spacing=3.8;strokeColor=#b85450;strokeOpacity=100;rounded=1;absoluteArcSize=1;arcSize=9;strokeWidth=2.3;fillColor=#f8cecc;" parent="1" vertex="1">
            <mxGeometry x="1201" y="440" width="150" height="45" as="geometry" />
          </mxCell>
        </UserObject>
        <UserObject label="Enter Number of Students" lucidchartObjectId="Aneqh-0WBh-V" id="bAnhzxqhdpHS4rBfya39-109">
          <mxCell style="html=1;overflow=block;blockSpacing=1;whiteSpace=wrap;ellipse;whiteSpace=wrap;fontSize=13;spacing=3.8;strokeColor=#b85450;strokeOpacity=100;rounded=1;absoluteArcSize=1;arcSize=9;strokeWidth=2.3;fillColor=#f8cecc;" parent="1" vertex="1">
            <mxGeometry x="1201" y="500" width="210" height="45" as="geometry" />
          </mxCell>
        </UserObject>
        <UserObject label="Calculate the number of block sections" lucidchartObjectId="AneqsE~QftCz" id="bAnhzxqhdpHS4rBfya39-110">
          <mxCell style="html=1;overflow=block;blockSpacing=1;whiteSpace=wrap;ellipse;whiteSpace=wrap;fontSize=13;spacing=3.8;strokeColor=#b85450;strokeOpacity=100;rounded=1;absoluteArcSize=1;arcSize=9;strokeWidth=2.3;fillColor=#f8cecc;" parent="1" vertex="1">
            <mxGeometry x="1201" y="560" width="195" height="60" as="geometry" />
          </mxCell>
        </UserObject>
        <UserObject label="Sort Schedule records" lucidchartObjectId="AneqI2_SgHAi" id="bAnhzxqhdpHS4rBfya39-111">
          <mxCell style="html=1;overflow=block;blockSpacing=1;whiteSpace=wrap;ellipse;whiteSpace=wrap;fontSize=13;spacing=3.8;strokeColor=#9673a6;strokeOpacity=100;rounded=1;absoluteArcSize=1;arcSize=9;strokeWidth=2.3;fillColor=#e1d5e7;" parent="1" vertex="1">
            <mxGeometry x="685" y="870" width="165" height="45" as="geometry" />
          </mxCell>
        </UserObject>
        <UserObject label="Filter Schedule records" lucidchartObjectId="AneqBNSqabO4" id="bAnhzxqhdpHS4rBfya39-112">
          <mxCell style="html=1;overflow=block;blockSpacing=1;whiteSpace=wrap;ellipse;whiteSpace=wrap;fontSize=13;spacing=3.8;strokeColor=#9673a6;strokeOpacity=100;rounded=1;absoluteArcSize=1;arcSize=9;strokeWidth=2.3;fillColor=#e1d5e7;" parent="1" vertex="1">
            <mxGeometry x="692.5" y="930" width="165" height="45" as="geometry" />
          </mxCell>
        </UserObject>
        <UserObject label="Search Schedule records" lucidchartObjectId="AneqTC5nh57_" id="bAnhzxqhdpHS4rBfya39-113">
          <mxCell style="html=1;overflow=block;blockSpacing=1;whiteSpace=wrap;ellipse;whiteSpace=wrap;fontSize=13;spacing=3.8;strokeColor=#9673a6;strokeOpacity=100;rounded=1;absoluteArcSize=1;arcSize=9;strokeWidth=2.3;fillColor=#e1d5e7;" parent="1" vertex="1">
            <mxGeometry x="685" y="990" width="180" height="45" as="geometry" />
          </mxCell>
        </UserObject>
        <mxCell id="bAnhzxqhdpHS4rBfya39-119" style="edgeStyle=orthogonalEdgeStyle;rounded=0;orthogonalLoop=1;jettySize=auto;html=1;exitX=0;exitY=0;exitDx=0;exitDy=0;endArrow=open;endFill=0;" parent="1" source="bAnhzxqhdpHS4rBfya39-114" edge="1">
          <mxGeometry relative="1" as="geometry">
            <mxPoint x="530" y="920" as="targetPoint" />
          </mxGeometry>
        </mxCell>
        <mxCell id="bAnhzxqhdpHS4rBfya39-114" value="&amp;lt;&amp;lt;extends&amp;gt;&amp;gt;" style="text;html=1;resizable=0;labelBackgroundColor=#ffffff;align=center;verticalAlign=middle;fontStyle=1;fontColor=#333333;;fontSize=13.3;" parent="1" vertex="1">
          <mxGeometry x="609.9991858146732" y="869.9971745998965" as="geometry" />
        </mxCell>
        <UserObject label="" lucidchartObjectId="Aneqyxa0sE78" id="bAnhzxqhdpHS4rBfya39-115">
          <mxCell style="html=1;jettySize=18;whiteSpace=wrap;fontSize=13;strokeColor=#5E5E5E;dashed=1;fixDash=1;dashPattern=3 8;strokeWidth=1.5;rounded=0;startArrow=none;;endArrow=open;;exitX=1;exitY=0.5;entryX=0;entryY=0.5;exitDx=0;exitDy=0;entryDx=0;entryDy=0;" parent="1" source="bAnhzxqhdpHS4rBfya39-93" target="bAnhzxqhdpHS4rBfya39-111" edge="1">
            <mxGeometry width="100" height="100" relative="1" as="geometry">
              <Array as="points" />
              <mxPoint x="620.0000000000003" y="880" as="sourcePoint" />
              <mxPoint x="677.8679999999998" y="1045" as="targetPoint" />
            </mxGeometry>
          </mxCell>
        </UserObject>
        <UserObject label="" lucidchartObjectId="Aneqyxa0sE78" id="bAnhzxqhdpHS4rBfya39-116">
          <mxCell style="html=1;jettySize=18;whiteSpace=wrap;fontSize=13;strokeColor=#5E5E5E;dashed=1;fixDash=1;dashPattern=3 8;strokeWidth=1.5;rounded=0;startArrow=none;;endArrow=open;;exitX=1;exitY=0.5;entryX=0;entryY=0.5;exitDx=0;exitDy=0;entryDx=0;entryDy=0;" parent="1" source="bAnhzxqhdpHS4rBfya39-93" target="bAnhzxqhdpHS4rBfya39-112" edge="1">
            <mxGeometry width="100" height="100" relative="1" as="geometry">
              <Array as="points" />
              <mxPoint x="629.9999999999984" y="852.5" as="sourcePoint" />
              <mxPoint x="695.0000000000011" y="852.5" as="targetPoint" />
            </mxGeometry>
          </mxCell>
        </UserObject>
        <UserObject label="" lucidchartObjectId="Aneqyxa0sE78" id="bAnhzxqhdpHS4rBfya39-117">
          <mxCell style="html=1;jettySize=18;whiteSpace=wrap;fontSize=13;strokeColor=#5E5E5E;dashed=1;fixDash=1;dashPattern=3 8;strokeWidth=1.5;rounded=0;startArrow=none;;endArrow=open;;entryX=0;entryY=0.5;entryDx=0;entryDy=0;exitX=1;exitY=0.5;exitDx=0;exitDy=0;" parent="1" source="bAnhzxqhdpHS4rBfya39-93" target="bAnhzxqhdpHS4rBfya39-113" edge="1">
            <mxGeometry width="100" height="100" relative="1" as="geometry">
              <Array as="points" />
              <mxPoint x="620" y="840" as="sourcePoint" />
              <mxPoint x="675.0000000000011" y="954" as="targetPoint" />
            </mxGeometry>
          </mxCell>
        </UserObject>
        <UserObject label="View Schedule Info" lucidchartObjectId="AneqTC5nh57_" id="bAnhzxqhdpHS4rBfya39-125">
          <mxCell style="html=1;overflow=block;blockSpacing=1;whiteSpace=wrap;ellipse;whiteSpace=wrap;fontSize=13;spacing=3.8;strokeColor=#9673a6;strokeOpacity=100;rounded=1;absoluteArcSize=1;arcSize=9;strokeWidth=2.3;fillColor=#e1d5e7;" parent="1" vertex="1">
            <mxGeometry x="490" y="1055" width="180" height="45" as="geometry" />
          </mxCell>
        </UserObject>
        <UserObject label="" lucidchartObjectId="Aneqyxa0sE78" id="bAnhzxqhdpHS4rBfya39-126">
          <mxCell style="html=1;jettySize=18;whiteSpace=wrap;fontSize=13;strokeColor=#5E5E5E;dashed=1;fixDash=1;dashPattern=3 8;strokeWidth=1.5;rounded=0;startArrow=none;;endArrow=open;;entryX=0.5;entryY=0;entryDx=0;entryDy=0;exitX=0.603;exitY=1.029;exitDx=0;exitDy=0;exitPerimeter=0;" parent="1" source="bAnhzxqhdpHS4rBfya39-93" target="bAnhzxqhdpHS4rBfya39-125" edge="1">
            <mxGeometry width="100" height="100" relative="1" as="geometry">
              <Array as="points" />
              <mxPoint x="585" y="852.5" as="sourcePoint" />
              <mxPoint x="695.0000000000036" y="1022.5" as="targetPoint" />
            </mxGeometry>
          </mxCell>
        </UserObject>
        <UserObject label="Remove Block Sections" lucidchartObjectId="AneqcKQtwko9" id="bAnhzxqhdpHS4rBfya39-127">
          <mxCell style="html=1;overflow=block;blockSpacing=1;whiteSpace=wrap;ellipse;whiteSpace=wrap;fontSize=13;spacing=3.8;strokeColor=#b85450;strokeOpacity=100;rounded=1;absoluteArcSize=1;arcSize=9;strokeWidth=2.3;fillColor=#f8cecc;" parent="1" vertex="1">
            <mxGeometry x="745" y="730" width="105" height="60" as="geometry" />
          </mxCell>
        </UserObject>
        <UserObject label="" lucidchartObjectId="AneqSBooyyIP" id="bAnhzxqhdpHS4rBfya39-128">
          <mxCell style="html=1;jettySize=18;whiteSpace=wrap;fontSize=13;strokeColor=#5E5E5E;dashed=1;fixDash=1;dashPattern=3 8;strokeWidth=1.5;rounded=0;startArrow=none;;endArrow=open;;exitX=0.5;exitY=1;entryX=0.5;entryY=0;exitDx=0;exitDy=0;entryDx=0;entryDy=0;" parent="1" source="bAnhzxqhdpHS4rBfya39-105" target="bAnhzxqhdpHS4rBfya39-127" edge="1">
            <mxGeometry width="100" height="100" relative="1" as="geometry">
              <Array as="points" />
              <mxPoint x="803.5" y="601.125" as="sourcePoint" />
              <mxPoint x="672.5" y="698.8599999999997" as="targetPoint" />
            </mxGeometry>
          </mxCell>
        </UserObject>
        <mxCell id="bAnhzxqhdpHS4rBfya39-129" value="&amp;lt;&amp;lt;include&amp;gt;&amp;gt;" style="text;html=1;resizable=0;labelBackgroundColor=#ffffff;align=center;verticalAlign=middle;fontStyle=1;fontColor=#333333;;fontSize=13.3;" parent="1" vertex="1">
          <mxGeometry x="793.4982375977752" y="679.9996105451812" as="geometry" />
        </mxCell>
        <UserObject label="Course Description" lucidchartObjectId="AneqTC5nh57_" id="bAnhzxqhdpHS4rBfya39-132">
          <mxCell style="html=1;overflow=block;blockSpacing=1;whiteSpace=wrap;ellipse;whiteSpace=wrap;fontSize=13;spacing=3.8;strokeColor=#9673a6;strokeOpacity=100;rounded=1;absoluteArcSize=1;arcSize=9;strokeWidth=2.3;fillColor=#e1d5e7;" parent="1" vertex="1">
            <mxGeometry x="906.25" y="1120" width="182.5" height="50" as="geometry" />
          </mxCell>
        </UserObject>
        <UserObject label="semester and year_level" lucidchartObjectId="AneqTC5nh57_" id="bAnhzxqhdpHS4rBfya39-133">
          <mxCell style="html=1;overflow=block;blockSpacing=1;whiteSpace=wrap;ellipse;whiteSpace=wrap;fontSize=13;spacing=3.8;strokeColor=#9673a6;strokeOpacity=100;rounded=1;absoluteArcSize=1;arcSize=9;strokeWidth=2.3;fillColor=#e1d5e7;" parent="1" vertex="1">
            <mxGeometry x="912.5" y="1190" width="182.5" height="50" as="geometry" />
          </mxCell>
        </UserObject>
        <UserObject label="Corresponding subjects with time, day, room and professor in a tabular format" lucidchartObjectId="AneqTC5nh57_" id="bAnhzxqhdpHS4rBfya39-134">
          <mxCell style="html=1;overflow=block;blockSpacing=1;whiteSpace=wrap;ellipse;whiteSpace=wrap;fontSize=13;spacing=3.8;strokeColor=#9673a6;strokeOpacity=100;rounded=1;absoluteArcSize=1;arcSize=9;strokeWidth=2.3;fillColor=#e1d5e7;" parent="1" vertex="1">
            <mxGeometry x="912.5" y="1260" width="227.5" height="90" as="geometry" />
          </mxCell>
        </UserObject>
        <UserObject label="" lucidchartObjectId="Aneqyxa0sE78" id="bAnhzxqhdpHS4rBfya39-135">
          <mxCell style="html=1;jettySize=18;whiteSpace=wrap;fontSize=13;strokeColor=#5E5E5E;dashed=1;fixDash=1;dashPattern=3 8;strokeWidth=1.5;rounded=0;startArrow=none;;endArrow=open;;exitX=1;exitY=0.5;exitDx=0;exitDy=0;entryX=0;entryY=0.5;entryDx=0;entryDy=0;" parent="1" source="bAnhzxqhdpHS4rBfya39-138" target="bAnhzxqhdpHS4rBfya39-132" edge="1">
            <mxGeometry width="100" height="100" relative="1" as="geometry">
              <Array as="points" />
              <mxPoint x="714.995" y="1079.9950000000003" as="sourcePoint" />
              <mxPoint x="787.41" y="1308.3999999999996" as="targetPoint" />
            </mxGeometry>
          </mxCell>
        </UserObject>
        <UserObject label="" lucidchartObjectId="Aneqyxa0sE78" id="bAnhzxqhdpHS4rBfya39-136">
          <mxCell style="html=1;jettySize=18;whiteSpace=wrap;fontSize=13;strokeColor=#5E5E5E;dashed=1;fixDash=1;dashPattern=3 8;strokeWidth=1.5;rounded=0;startArrow=none;;endArrow=open;;entryX=0;entryY=0.5;entryDx=0;entryDy=0;" parent="1" target="bAnhzxqhdpHS4rBfya39-133" edge="1">
            <mxGeometry width="100" height="100" relative="1" as="geometry">
              <Array as="points" />
              <mxPoint x="720" y="1078" as="sourcePoint" />
              <mxPoint x="770.0343431472529" y="1134.3141679935884" as="targetPoint" />
            </mxGeometry>
          </mxCell>
        </UserObject>
        <UserObject label="" lucidchartObjectId="Aneqyxa0sE78" id="bAnhzxqhdpHS4rBfya39-137">
          <mxCell style="html=1;jettySize=18;whiteSpace=wrap;fontSize=13;strokeColor=#5E5E5E;dashed=1;fixDash=1;dashPattern=3 8;strokeWidth=1.5;rounded=0;startArrow=none;;endArrow=open;;entryX=0;entryY=0.5;entryDx=0;entryDy=0;" parent="1" target="bAnhzxqhdpHS4rBfya39-134" edge="1">
            <mxGeometry width="100" height="100" relative="1" as="geometry">
              <Array as="points" />
              <mxPoint x="720" y="1078" as="sourcePoint" />
              <mxPoint x="890.0000000000005" y="1204.9999999999995" as="targetPoint" />
            </mxGeometry>
          </mxCell>
        </UserObject>
        <UserObject label="view block section name" lucidchartObjectId="AneqMCE1SQyz" id="bAnhzxqhdpHS4rBfya39-144">
          <mxCell style="html=1;overflow=block;blockSpacing=1;whiteSpace=wrap;ellipse;whiteSpace=wrap;fontSize=13;spacing=3.8;strokeColor=#b85450;strokeOpacity=100;rounded=1;absoluteArcSize=1;arcSize=9;strokeWidth=2.3;fillColor=#f8cecc;" parent="1" vertex="1">
            <mxGeometry x="1201" y="718" width="195" height="45" as="geometry" />
          </mxCell>
        </UserObject>
        <UserObject label="" lucidchartObjectId="Aneq8oyg9y-w" id="bAnhzxqhdpHS4rBfya39-145">
          <mxCell style="html=1;jettySize=18;whiteSpace=wrap;fontSize=13;strokeColor=#5E5E5E;dashed=1;fixDash=1;dashPattern=3 8;strokeWidth=1.5;rounded=0;startArrow=none;;endArrow=open;endFill=0;;exitX=0.764;exitY=0.956;exitPerimeter=0;entryX=0;entryY=0.5;exitDx=0;exitDy=0;entryDx=0;entryDy=0;" parent="1" source="bAnhzxqhdpHS4rBfya39-71" target="bAnhzxqhdpHS4rBfya39-144" edge="1">
            <mxGeometry width="100" height="100" relative="1" as="geometry">
              <Array as="points" />
              <mxPoint x="1118.4450000000002" y="726.065" as="sourcePoint" />
              <mxPoint x="1210.83" y="802.5" as="targetPoint" />
            </mxGeometry>
          </mxCell>
        </UserObject>
        <mxCell id="bAnhzxqhdpHS4rBfya39-71" value="&amp;lt;&amp;lt;includes&amp;gt;&amp;gt;" style="text;html=1;resizable=0;labelBackgroundColor=#ffffff;align=center;verticalAlign=middle;fontStyle=1;fontColor=#333333;;fontSize=13.3;" parent="1" vertex="1">
          <mxGeometry x="1130.0034854585506" y="729.9955332769032" as="geometry" />
        </mxCell>
        <mxCell id="bAnhzxqhdpHS4rBfya39-149" value="" style="html=1;jettySize=18;whiteSpace=wrap;fontSize=13;strokeColor=#5E5E5E;dashed=1;fixDash=1;dashPattern=3 8;strokeWidth=1.5;rounded=0;startArrow=none;;endArrow=none;endFill=0;;exitX=0.764;exitY=0.956;exitPerimeter=0;entryX=0;entryY=0.5;exitDx=0;exitDy=0;entryDx=0;entryDy=0;" parent="1" source="bAnhzxqhdpHS4rBfya39-58" target="bAnhzxqhdpHS4rBfya39-71" edge="1">
          <mxGeometry width="100" height="100" relative="1" as="geometry">
            <Array as="points" />
            <mxPoint x="1110.98" y="716.02" as="sourcePoint" />
            <mxPoint x="1201.0000000000018" y="740.5" as="targetPoint" />
          </mxGeometry>
        </mxCell>
        <UserObject label="Block section name" lucidchartObjectId="AneqTC5nh57_" id="bAnhzxqhdpHS4rBfya39-150">
          <mxCell style="html=1;overflow=block;blockSpacing=1;whiteSpace=wrap;ellipse;whiteSpace=wrap;fontSize=13;spacing=3.8;strokeColor=#9673a6;strokeOpacity=100;rounded=1;absoluteArcSize=1;arcSize=9;strokeWidth=2.3;fillColor=#e1d5e7;" parent="1" vertex="1">
            <mxGeometry x="906.25" y="1050" width="182.5" height="50" as="geometry" />
          </mxCell>
        </UserObject>
        <UserObject label="" lucidchartObjectId="Aneqyxa0sE78" id="bAnhzxqhdpHS4rBfya39-151">
          <mxCell style="html=1;jettySize=18;whiteSpace=wrap;fontSize=13;strokeColor=#5E5E5E;dashed=1;fixDash=1;dashPattern=3 8;strokeWidth=1.5;rounded=0;startArrow=none;;endArrow=open;;exitX=1;exitY=0.5;exitDx=0;exitDy=0;entryX=0;entryY=0.5;entryDx=0;entryDy=0;" parent="1" source="bAnhzxqhdpHS4rBfya39-125" target="bAnhzxqhdpHS4rBfya39-150" edge="1">
            <mxGeometry width="100" height="100" relative="1" as="geometry">
              <Array as="points" />
              <mxPoint x="669.9999999999995" y="1132.5" as="sourcePoint" />
              <mxPoint x="916.2500000000005" y="1155" as="targetPoint" />
            </mxGeometry>
          </mxCell>
        </UserObject>
        <mxCell id="bAnhzxqhdpHS4rBfya39-138" value="&amp;lt;&amp;lt;includes&amp;gt;&amp;gt;" style="text;html=1;resizable=0;labelBackgroundColor=#ffffff;align=center;verticalAlign=middle;fontStyle=1;fontColor=#333333;;fontSize=13.3;" parent="1" vertex="1">
          <mxGeometry x="719.9982375977752" y="1079.9996105451812" as="geometry">
            <mxPoint x="-5" y="-2" as="offset" />
          </mxGeometry>
        </mxCell>
        <mxCell id="bAnhzxqhdpHS4rBfya39-154" value="" style="html=1;jettySize=18;whiteSpace=wrap;fontSize=13;strokeColor=#5E5E5E;dashed=1;fixDash=1;dashPattern=3 8;strokeWidth=1.5;rounded=0;startArrow=none;;endArrow=none;;exitX=1;exitY=0.5;exitDx=0;exitDy=0;entryX=0;entryY=0.5;entryDx=0;entryDy=0;" parent="1" source="bAnhzxqhdpHS4rBfya39-125" target="bAnhzxqhdpHS4rBfya39-138" edge="1">
          <mxGeometry width="100" height="100" relative="1" as="geometry">
            <Array as="points" />
            <mxPoint x="670.0000000000059" y="1077.4999999999995" as="sourcePoint" />
            <mxPoint x="906.25" y="1144.9999999999995" as="targetPoint" />
          </mxGeometry>
        </mxCell>
        <UserObject label="Print Schedule Info" lucidchartObjectId="AneqTC5nh57_" id="bAnhzxqhdpHS4rBfya39-155">
          <mxCell style="html=1;overflow=block;blockSpacing=1;whiteSpace=wrap;ellipse;whiteSpace=wrap;fontSize=13;spacing=3.8;strokeColor=#9673a6;strokeOpacity=100;rounded=1;absoluteArcSize=1;arcSize=9;strokeWidth=2.3;fillColor=#e1d5e7;" parent="1" vertex="1">
            <mxGeometry x="545" y="1240" width="180" height="45" as="geometry" />
          </mxCell>
        </UserObject>
        <UserObject label="" lucidchartObjectId="Aneqyxa0sE78" id="bAnhzxqhdpHS4rBfya39-156">
          <mxCell style="html=1;jettySize=18;whiteSpace=wrap;fontSize=13;strokeColor=#5E5E5E;dashed=1;fixDash=1;dashPattern=3 8;strokeWidth=1.5;rounded=0;startArrow=none;;endArrow=open;;entryX=0;entryY=0.5;entryDx=0;entryDy=0;exitX=0;exitY=0.5;exitDx=0;exitDy=0;" parent="1" source="bAnhzxqhdpHS4rBfya39-93" target="bAnhzxqhdpHS4rBfya39-155" edge="1">
            <mxGeometry width="100" height="100" relative="1" as="geometry">
              <Array as="points" />
              <mxPoint x="507.58500000000004" y="881.5950000000003" as="sourcePoint" />
              <mxPoint x="590" y="1064.9999999999995" as="targetPoint" />
            </mxGeometry>
          </mxCell>
        </UserObject>
        <mxCell id="FllmD5eeuwooPLQuax1E-3" value="&lt;div style=&quot;text-align: center&quot;&gt;&lt;span id=&quot;docs-internal-guid-b8f0ce56-7fff-536f-553a-61a049255bb2&quot;&gt;&lt;span style=&quot;font-family: &amp;#34;courier new&amp;#34; ; background-color: transparent ; vertical-align: baseline&quot;&gt;&lt;b&gt;&lt;font style=&quot;font-size: 30px&quot;&gt;Automated Scheduling System&lt;/font&gt;&lt;/b&gt;&lt;/span&gt;&lt;/span&gt;&lt;/div&gt;&lt;b id=&quot;docs-internal-guid-b8f0ce56-7fff-536f-553a-61a049255bb2&quot;&gt;&lt;div style=&quot;text-align: center&quot;&gt;&lt;span id=&quot;docs-internal-guid-b8f0ce56-7fff-536f-553a-61a049255bb2&quot;&gt;&lt;span style=&quot;font-family: &amp;#34;courier new&amp;#34; ; background-color: transparent ; vertical-align: baseline&quot;&gt;&lt;font style=&quot;font-size: 18px&quot;&gt;(Web System)&lt;/font&gt;&lt;/span&gt;&lt;/span&gt;&lt;/div&gt;&lt;/b&gt;" style="text;whiteSpace=wrap;html=1;" parent="1" vertex="1">
          <mxGeometry x="674.5" y="-283" width="500" height="80" as="geometry" />
        </mxCell>
        <UserObject label="Student" lucidchartObjectId="Aneq4tT9_dTQ" id="FllmD5eeuwooPLQuax1E-4">
          <mxCell style="html=1;overflow=block;blockSpacing=1;whiteSpace=wrap;shape=umlActor;labelPosition=center;verticalLabelPosition=bottom;verticalAlign=top;whiteSpace=nowrap;whiteSpace=wrap;fontSize=16.7;fontColor=#333333;spacing=0;strokeColor=#5e5e5e;strokeOpacity=100;rounded=1;absoluteArcSize=1;arcSize=9;strokeWidth=2.3;" parent="1" vertex="1">
            <mxGeometry x="510.88" y="1690" width="45" height="90" as="geometry" />
          </mxCell>
        </UserObject>
        <UserObject label="Login Account" lucidchartObjectId="Aneq2xJtDtZU" id="FllmD5eeuwooPLQuax1E-5">
          <mxCell style="html=1;overflow=block;blockSpacing=1;whiteSpace=wrap;ellipse;whiteSpace=wrap;fontSize=13;spacing=3.8;strokeColor=#82b366;strokeOpacity=100;rounded=1;absoluteArcSize=1;arcSize=9;strokeWidth=2.3;fillColor=#d5e8d4;" parent="1" vertex="1">
            <mxGeometry x="755.88" y="1600" width="120" height="45" as="geometry" />
          </mxCell>
        </UserObject>
        <UserObject label="Select Department" lucidchartObjectId="Aneq2xJtDtZU" id="FllmD5eeuwooPLQuax1E-6">
          <mxCell style="html=1;overflow=block;blockSpacing=1;whiteSpace=wrap;ellipse;whiteSpace=wrap;fontSize=13;spacing=3.8;strokeColor=#82b366;strokeOpacity=100;rounded=1;absoluteArcSize=1;arcSize=9;strokeWidth=2.3;fillColor=#d5e8d4;" parent="1" vertex="1">
            <mxGeometry x="1046.88" y="1660" width="120" height="45" as="geometry" />
          </mxCell>
        </UserObject>
        <UserObject label="Select Course &amp;amp; Year Level" lucidchartObjectId="Aneq2xJtDtZU" id="FllmD5eeuwooPLQuax1E-7">
          <mxCell style="html=1;overflow=block;blockSpacing=1;whiteSpace=wrap;ellipse;whiteSpace=wrap;fontSize=13;spacing=3.8;strokeColor=#82b366;strokeOpacity=100;rounded=1;absoluteArcSize=1;arcSize=9;strokeWidth=2.3;fillColor=#d5e8d4;" parent="1" vertex="1">
            <mxGeometry x="1046.88" y="1745" width="184" height="45" as="geometry" />
          </mxCell>
        </UserObject>
        <UserObject label="View Available Block Sections" lucidchartObjectId="Aneq2xJtDtZU" id="FllmD5eeuwooPLQuax1E-8">
          <mxCell style="html=1;overflow=block;blockSpacing=1;whiteSpace=wrap;ellipse;whiteSpace=wrap;fontSize=13;spacing=3.8;strokeColor=#82b366;strokeOpacity=100;rounded=1;absoluteArcSize=1;arcSize=9;strokeWidth=2.3;fillColor=#d5e8d4;" parent="1" vertex="1">
            <mxGeometry x="755.88" y="1690" width="190" height="55" as="geometry" />
          </mxCell>
        </UserObject>
        <UserObject label="" lucidchartObjectId="Aneq3utgzdq2" id="FllmD5eeuwooPLQuax1E-10">
          <mxCell style="html=1;jettySize=18;whiteSpace=wrap;fontSize=13;strokeColor=#5E5E5E;strokeWidth=1.5;rounded=0;startArrow=none;;endArrow=none;;exitX=0;exitY=0.5;exitDx=0;exitDy=0;entryX=1;entryY=0.3333333333333333;entryDx=0;entryDy=0;entryPerimeter=0;" parent="1" source="FllmD5eeuwooPLQuax1E-5" target="FllmD5eeuwooPLQuax1E-4" edge="1">
            <mxGeometry width="100" height="100" relative="1" as="geometry">
              <Array as="points" />
              <mxPoint x="588.38" y="1650" as="targetPoint" />
              <mxPoint x="880.88" y="2265" as="sourcePoint" />
            </mxGeometry>
          </mxCell>
        </UserObject>
        <UserObject label="" lucidchartObjectId="Aneq3utgzdq2" id="FllmD5eeuwooPLQuax1E-11">
          <mxCell style="html=1;jettySize=18;whiteSpace=wrap;fontSize=13;strokeColor=#5E5E5E;strokeWidth=1.5;rounded=0;startArrow=none;;endArrow=none;;exitX=0;exitY=0.5;exitDx=0;exitDy=0;entryX=1;entryY=0.3333333333333333;entryDx=0;entryDy=0;entryPerimeter=0;" parent="1" source="FllmD5eeuwooPLQuax1E-8" target="FllmD5eeuwooPLQuax1E-4" edge="1">
            <mxGeometry width="100" height="100" relative="1" as="geometry">
              <Array as="points" />
              <mxPoint x="565.88" y="1730" as="targetPoint" />
              <mxPoint x="770.88" y="1632.5" as="sourcePoint" />
            </mxGeometry>
          </mxCell>
        </UserObject>
        <UserObject label="" lucidchartObjectId="Aneqyxa0sE78" id="FllmD5eeuwooPLQuax1E-12">
          <mxCell style="html=1;jettySize=18;whiteSpace=wrap;fontSize=13;strokeColor=#5E5E5E;dashed=1;fixDash=1;dashPattern=3 8;strokeWidth=1.5;rounded=0;startArrow=none;;endArrow=open;;entryX=0;entryY=0.5;entryDx=0;entryDy=0;exitX=1;exitY=0.5;exitDx=0;exitDy=0;" parent="1" source="FllmD5eeuwooPLQuax1E-8" target="FllmD5eeuwooPLQuax1E-6" edge="1">
            <mxGeometry width="100" height="100" relative="1" as="geometry">
              <Array as="points" />
              <mxPoint x="975.88" y="1468" as="sourcePoint" />
              <mxPoint x="1168.38" y="1695" as="targetPoint" />
            </mxGeometry>
          </mxCell>
        </UserObject>
        <UserObject label="" lucidchartObjectId="Aneqyxa0sE78" id="FllmD5eeuwooPLQuax1E-13">
          <mxCell style="html=1;jettySize=18;whiteSpace=wrap;fontSize=13;strokeColor=#5E5E5E;dashed=1;fixDash=1;dashPattern=3 8;strokeWidth=1.5;rounded=0;startArrow=none;;endArrow=open;;entryX=0;entryY=0.5;entryDx=0;entryDy=0;exitX=1;exitY=0.5;exitDx=0;exitDy=0;" parent="1" source="FllmD5eeuwooPLQuax1E-8" target="FllmD5eeuwooPLQuax1E-7" edge="1">
            <mxGeometry width="100" height="100" relative="1" as="geometry">
              <Array as="points" />
              <mxPoint x="960.88" y="1740" as="sourcePoint" />
              <mxPoint x="1050.88" y="1652.5" as="targetPoint" />
            </mxGeometry>
          </mxCell>
        </UserObject>
        <UserObject label="Display block sections schedule in a tabular format" lucidchartObjectId="AneqJkKJ_Zp6" id="FllmD5eeuwooPLQuax1E-14">
          <mxCell style="html=1;overflow=block;blockSpacing=1;whiteSpace=wrap;ellipse;whiteSpace=wrap;fontSize=13;spacing=3.8;strokeColor=#b85450;strokeOpacity=100;rounded=1;absoluteArcSize=1;arcSize=9;strokeWidth=2.3;fillColor=#f8cecc;" parent="1" vertex="1">
            <mxGeometry x="1046.88" y="1820" width="245.5" height="70" as="geometry" />
          </mxCell>
        </UserObject>
        <UserObject label="" lucidchartObjectId="Aneqyxa0sE78" id="FllmD5eeuwooPLQuax1E-15">
          <mxCell style="html=1;jettySize=18;whiteSpace=wrap;fontSize=13;strokeColor=#5E5E5E;dashed=1;fixDash=1;dashPattern=3 8;strokeWidth=1.5;rounded=0;startArrow=none;;endArrow=open;;entryX=0;entryY=0.5;entryDx=0;entryDy=0;exitX=0.5;exitY=1;exitDx=0;exitDy=0;" parent="1" source="FllmD5eeuwooPLQuax1E-8" target="FllmD5eeuwooPLQuax1E-14" edge="1">
            <mxGeometry width="100" height="100" relative="1" as="geometry">
              <Array as="points" />
              <mxPoint x="955.88" y="1727.5" as="sourcePoint" />
              <mxPoint x="1055.38" y="1727.5" as="targetPoint" />
            </mxGeometry>
          </mxCell>
        </UserObject>
        <mxCell id="FllmD5eeuwooPLQuax1E-16" value="&amp;lt;&amp;lt;extends&amp;gt;&amp;gt;" style="text;html=1;resizable=0;labelBackgroundColor=#ffffff;align=center;verticalAlign=middle;fontStyle=1;fontColor=#333333;;fontSize=13.3;" parent="1" vertex="1">
          <mxGeometry x="930.8791858146732" y="1789.9971745998964" as="geometry" />
        </mxCell>
        <mxCell id="FllmD5eeuwooPLQuax1E-21" value="&amp;lt;&amp;lt;includes&amp;gt;&amp;gt;" style="text;html=1;resizable=0;labelBackgroundColor=#ffffff;align=center;verticalAlign=middle;fontStyle=1;fontColor=#333333;;fontSize=13.3;" parent="1" vertex="1">
          <mxGeometry x="1000.8791858146732" y="1717.4971745998964" as="geometry" />
        </mxCell>
        <UserObject label="Professor" lucidchartObjectId="Aneq4tT9_dTQ" id="FllmD5eeuwooPLQuax1E-25">
          <mxCell style="html=1;overflow=block;blockSpacing=1;whiteSpace=wrap;shape=umlActor;labelPosition=center;verticalLabelPosition=bottom;verticalAlign=top;whiteSpace=nowrap;whiteSpace=wrap;fontSize=16.7;fontColor=#333333;spacing=0;strokeColor=#5e5e5e;strokeOpacity=100;rounded=1;absoluteArcSize=1;arcSize=9;strokeWidth=2.3;" parent="1" vertex="1">
            <mxGeometry x="510.88" y="1930" width="45" height="90" as="geometry" />
          </mxCell>
        </UserObject>
        <UserObject label="" lucidchartObjectId="Aneq3utgzdq2" id="FllmD5eeuwooPLQuax1E-27">
          <mxCell style="html=1;jettySize=18;whiteSpace=wrap;fontSize=13;strokeColor=#5E5E5E;strokeWidth=1.5;rounded=0;startArrow=none;;endArrow=none;;exitX=0;exitY=0.5;exitDx=0;exitDy=0;entryX=1;entryY=0.3333333333333333;entryDx=0;entryDy=0;entryPerimeter=0;" parent="1" source="FllmD5eeuwooPLQuax1E-5" target="FllmD5eeuwooPLQuax1E-25" edge="1">
            <mxGeometry width="100" height="100" relative="1" as="geometry">
              <Array as="points" />
              <mxPoint x="565.88" y="1730" as="targetPoint" />
              <mxPoint x="765.88" y="1632.5" as="sourcePoint" />
            </mxGeometry>
          </mxCell>
        </UserObject>
        <UserObject label="View Faculty Load Schedule in a tabular format" lucidchartObjectId="Aneq2xJtDtZU" id="FllmD5eeuwooPLQuax1E-28">
          <mxCell style="html=1;overflow=block;blockSpacing=1;whiteSpace=wrap;ellipse;whiteSpace=wrap;fontSize=13;spacing=3.8;strokeColor=#82b366;strokeOpacity=100;rounded=1;absoluteArcSize=1;arcSize=9;strokeWidth=2.3;fillColor=#d5e8d4;" parent="1" vertex="1">
            <mxGeometry x="755.88" y="1930" width="230" height="55" as="geometry" />
          </mxCell>
        </UserObject>
        <UserObject label="" lucidchartObjectId="Aneq3utgzdq2" id="FllmD5eeuwooPLQuax1E-29">
          <mxCell style="html=1;jettySize=18;whiteSpace=wrap;fontSize=13;strokeColor=#5E5E5E;strokeWidth=1.5;rounded=0;startArrow=none;;endArrow=none;;exitX=0;exitY=0.5;exitDx=0;exitDy=0;entryX=1;entryY=0.3333333333333333;entryDx=0;entryDy=0;entryPerimeter=0;" parent="1" source="FllmD5eeuwooPLQuax1E-28" target="FllmD5eeuwooPLQuax1E-25" edge="1">
            <mxGeometry width="100" height="100" relative="1" as="geometry">
              <Array as="points" />
              <mxPoint x="565.88" y="1970" as="targetPoint" />
              <mxPoint x="765.88" y="1632.5" as="sourcePoint" />
            </mxGeometry>
          </mxCell>
        </UserObject>
        <UserObject label="Sort load schedule&amp;nbsp;" lucidchartObjectId="AneqI2_SgHAi" id="FllmD5eeuwooPLQuax1E-30">
          <mxCell style="html=1;overflow=block;blockSpacing=1;whiteSpace=wrap;ellipse;whiteSpace=wrap;fontSize=13;spacing=3.8;strokeColor=#9673a6;strokeOpacity=100;rounded=1;absoluteArcSize=1;arcSize=9;strokeWidth=2.3;fillColor=#e1d5e7;" parent="1" vertex="1">
            <mxGeometry x="670.88" y="2055" width="165" height="45" as="geometry" />
          </mxCell>
        </UserObject>
        <UserObject label="Calculate the total hours worked by the professor during the semester." lucidchartObjectId="AneqI2_SgHAi" id="FllmD5eeuwooPLQuax1E-33">
          <mxCell style="html=1;overflow=block;blockSpacing=1;whiteSpace=wrap;ellipse;whiteSpace=wrap;fontSize=13;spacing=3.8;strokeColor=#9673a6;strokeOpacity=100;rounded=1;absoluteArcSize=1;arcSize=9;strokeWidth=2.3;fillColor=#e1d5e7;" parent="1" vertex="1">
            <mxGeometry x="860.88" y="2055" width="240" height="80" as="geometry" />
          </mxCell>
        </UserObject>
        <UserObject label="" lucidchartObjectId="Aneqyxa0sE78" id="FllmD5eeuwooPLQuax1E-34">
          <mxCell style="html=1;jettySize=18;whiteSpace=wrap;fontSize=13;strokeColor=#5E5E5E;dashed=1;fixDash=1;dashPattern=3 8;strokeWidth=1.5;rounded=0;startArrow=none;;endArrow=open;;entryX=0.5;entryY=0;entryDx=0;entryDy=0;exitX=0.5;exitY=1;exitDx=0;exitDy=0;" parent="1" source="FllmD5eeuwooPLQuax1E-28" target="FllmD5eeuwooPLQuax1E-33" edge="1">
            <mxGeometry width="100" height="100" relative="1" as="geometry">
              <Array as="points" />
              <mxPoint x="899.88" y="1999.9999999999995" as="sourcePoint" />
              <mxPoint x="1095.88" y="2109.9999999999995" as="targetPoint" />
            </mxGeometry>
          </mxCell>
        </UserObject>
        <UserObject label="" lucidchartObjectId="Aneqyxa0sE78" id="FllmD5eeuwooPLQuax1E-35">
          <mxCell style="html=1;jettySize=18;whiteSpace=wrap;fontSize=13;strokeColor=#5E5E5E;dashed=1;fixDash=1;dashPattern=3 8;strokeWidth=1.5;rounded=0;startArrow=none;;endArrow=open;;entryX=0.5;entryY=0;entryDx=0;entryDy=0;exitX=0.5;exitY=1;exitDx=0;exitDy=0;" parent="1" source="FllmD5eeuwooPLQuax1E-28" target="FllmD5eeuwooPLQuax1E-30" edge="1">
            <mxGeometry width="100" height="100" relative="1" as="geometry">
              <Array as="points" />
              <mxPoint x="880.88" y="1995" as="sourcePoint" />
              <mxPoint x="1015.88" y="2065" as="targetPoint" />
            </mxGeometry>
          </mxCell>
        </UserObject>
        <mxCell id="FllmD5eeuwooPLQuax1E-37" style="edgeStyle=orthogonalEdgeStyle;rounded=0;orthogonalLoop=1;jettySize=auto;html=1;exitX=0;exitY=0;exitDx=0;exitDy=0;fontSize=30;endArrow=open;endFill=0;" parent="1" source="FllmD5eeuwooPLQuax1E-36" target="FllmD5eeuwooPLQuax1E-28" edge="1">
          <mxGeometry relative="1" as="geometry" />
        </mxCell>
        <mxCell id="FllmD5eeuwooPLQuax1E-36" value="&amp;lt;&amp;lt;extends&amp;gt;&amp;gt;" style="text;html=1;resizable=0;labelBackgroundColor=#ffffff;align=center;verticalAlign=middle;fontStyle=1;fontColor=#333333;;fontSize=13.3;" parent="1" vertex="1">
          <mxGeometry x="870.8791858146732" y="2019.9971745998964" as="geometry" />
        </mxCell>
        <UserObject label="Load schedule details(subject_code, course_code, course description, unit, time, days, and room)" lucidchartObjectId="Aneq2xJtDtZU" id="FllmD5eeuwooPLQuax1E-41">
          <mxCell style="html=1;overflow=block;blockSpacing=1;whiteSpace=wrap;ellipse;whiteSpace=wrap;fontSize=13;spacing=3.8;strokeColor=#82b366;strokeOpacity=100;rounded=1;absoluteArcSize=1;arcSize=9;strokeWidth=2.3;fillColor=#d5e8d4;" parent="1" vertex="1">
            <mxGeometry x="1046.88" y="1940" width="291.25" height="100" as="geometry" />
          </mxCell>
        </UserObject>
        <UserObject label="" lucidchartObjectId="Aneqyxa0sE78" id="FllmD5eeuwooPLQuax1E-42">
          <mxCell style="html=1;jettySize=18;whiteSpace=wrap;fontSize=13;strokeColor=#5E5E5E;dashed=1;fixDash=1;dashPattern=3 8;strokeWidth=1.5;rounded=0;startArrow=none;;endArrow=open;;exitX=1;exitY=0.5;exitDx=0;exitDy=0;entryX=0;entryY=0.5;entryDx=0;entryDy=0;" parent="1" source="FllmD5eeuwooPLQuax1E-28" target="FllmD5eeuwooPLQuax1E-41" edge="1">
            <mxGeometry width="100" height="100" relative="1" as="geometry">
              <Array as="points" />
              <mxPoint x="1085.88" y="1929.9999999999995" as="sourcePoint" />
              <mxPoint x="1130.88" y="1970" as="targetPoint" />
            </mxGeometry>
          </mxCell>
        </UserObject>
        <mxCell id="FllmD5eeuwooPLQuax1E-45" value="&lt;div style=&quot;text-align: center&quot;&gt;&lt;span id=&quot;docs-internal-guid-b8f0ce56-7fff-536f-553a-61a049255bb2&quot;&gt;&lt;span style=&quot;font-family: &amp;#34;courier new&amp;#34; ; background-color: transparent ; vertical-align: baseline&quot;&gt;&lt;b&gt;&lt;font style=&quot;font-size: 30px&quot;&gt;Automated Scheduling System&lt;/font&gt;&lt;/b&gt;&lt;/span&gt;&lt;/span&gt;&lt;/div&gt;&lt;b id=&quot;docs-internal-guid-b8f0ce56-7fff-536f-553a-61a049255bb2&quot;&gt;&lt;div style=&quot;text-align: center&quot;&gt;&lt;span id=&quot;docs-internal-guid-b8f0ce56-7fff-536f-553a-61a049255bb2&quot;&gt;&lt;span style=&quot;font-family: &amp;#34;courier new&amp;#34; ; background-color: transparent ; vertical-align: baseline&quot;&gt;&lt;font style=&quot;font-size: 18px&quot;&gt;(Mobile Application)&lt;/font&gt;&lt;/span&gt;&lt;/span&gt;&lt;/div&gt;&lt;/b&gt;" style="text;whiteSpace=wrap;html=1;" parent="1" vertex="1">
          <mxGeometry x="776.25" y="1500" width="500" height="80" as="geometry" />
        </mxCell>
        <UserObject label="Registrar" lucidchartObjectId="Aneq6y.R5byz" id="KKWzGomrnOxb03cIsaKo-1">
          <mxCell style="html=1;overflow=block;blockSpacing=1;whiteSpace=wrap;shape=umlActor;labelPosition=center;verticalLabelPosition=bottom;verticalAlign=top;whiteSpace=nowrap;whiteSpace=wrap;fontSize=16.7;fontColor=#333333;spacing=0;strokeColor=#5e5e5e;strokeOpacity=100;rounded=1;absoluteArcSize=1;arcSize=9;strokeWidth=2.3;" vertex="1" parent="1">
            <mxGeometry x="140" y="860" width="45" height="90" as="geometry" />
          </mxCell>
        </UserObject>
        <UserObject label="" lucidchartObjectId="AneqDjUx6QR4" id="KKWzGomrnOxb03cIsaKo-2">
          <mxCell style="html=1;jettySize=18;whiteSpace=wrap;fontSize=13;strokeColor=#5E5E5E;strokeWidth=1.5;rounded=0;startArrow=none;;endArrow=none;;entryX=0;entryY=0.5;exitX=1;exitY=0.3333333333333333;exitDx=0;exitDy=0;exitPerimeter=0;entryDx=0;entryDy=0;" edge="1" parent="1" source="KKWzGomrnOxb03cIsaKo-1" target="bAnhzxqhdpHS4rBfya39-2">
            <mxGeometry width="100" height="100" relative="1" as="geometry">
              <Array as="points" />
              <mxPoint x="195" y="210" as="sourcePoint" />
              <mxPoint x="433.9200000000001" y="-67.5" as="targetPoint" />
            </mxGeometry>
          </mxCell>
        </UserObject>
        <UserObject label="" lucidchartObjectId="Aneq3utgzdq2" id="KKWzGomrnOxb03cIsaKo-3">
          <mxCell style="html=1;jettySize=18;whiteSpace=wrap;fontSize=13;strokeColor=#5E5E5E;strokeWidth=1.5;rounded=0;startArrow=none;;endArrow=none;;exitX=0;exitY=0.5;entryX=1;entryY=0.3333333333333333;entryDx=0;entryDy=0;entryPerimeter=0;exitDx=0;exitDy=0;" edge="1" parent="1" source="bAnhzxqhdpHS4rBfya39-93" target="KKWzGomrnOxb03cIsaKo-1">
            <mxGeometry width="100" height="100" relative="1" as="geometry">
              <Array as="points" />
              <mxPoint x="220" y="680" as="targetPoint" />
              <mxPoint x="455.9200000000001" y="882.5" as="sourcePoint" />
            </mxGeometry>
          </mxCell>
        </UserObject>
      </root>
    </mxGraphModel>
  </diagram>
</mxfile>
